ISO-10303-21;
HEADER;
/* Generated by software containing ST-Developer
 * from STEP Tools, Inc. (www.steptools.com) 
 */

FILE_DESCRIPTION(
/* description */ (''),
/* implementation_level */ '2;1');

FILE_NAME(
/* name */ 'Tube and Handle.step',
/* time_stamp */ '2026-08-12T17:46:24+12:00',
/* author */ (''),
/* organization */ (''),
/* preprocessor_version */ 'ST-DEVELOPER v20.1',
/* originating_system */ 'Autodesk Translation Framework v15.8.0.0',
/* authorisation */ '');

FILE_SCHEMA (('AUTOMOTIVE_DESIGN { 1 0 10303 214 3 1 1 }'));
ENDSEC;

DATA;
#10=MECHANICAL_DESIGN_GEOMETRIC_PRESENTATION_REPRESENTATION('',(#13,#14),
#803);
#11=SHAPE_REPRESENTATION_RELATIONSHIP('SRR','None',#810,#12);
#12=ADVANCED_BREP_SHAPE_REPRESENTATION('',(#15,#16),#802);
#13=STYLED_ITEM('',(#819),#15);
#14=STYLED_ITEM('',(#819),#16);
#15=MANIFOLD_SOLID_BREP('Body1',#434);
#16=MANIFOLD_SOLID_BREP('Body2',#435);
#17=SPHERICAL_SURFACE('',#472,40.);
#18=FACE_BOUND('',#86,.T.);
#19=FACE_BOUND('',#88,.T.);
#20=FACE_BOUND('',#91,.T.);
#21=CIRCLE('',#455,21.);
#22=CIRCLE('',#456,25.);
#23=CIRCLE('',#457,21.);
#24=CIRCLE('',#459,21.);
#25=CIRCLE('',#460,25.);
#26=CIRCLE('',#463,25.);
#27=CIRCLE('',#464,25.);
#28=CIRCLE('',#465,25.);
#29=CIRCLE('',#466,25.);
#30=CIRCLE('',#468,21.);
#31=CIRCLE('',#470,21.);
#32=CIRCLE('',#473,40.);
#33=CIRCLE('',#478,21.);
#34=CIRCLE('',#479,21.);
#35=CIRCLE('',#484,21.);
#36=CIRCLE('',#485,21.);
#37=PLANE('',#451);
#38=PLANE('',#452);
#39=PLANE('',#453);
#40=PLANE('',#454);
#41=PLANE('',#458);
#42=PLANE('',#461);
#43=PLANE('',#467);
#44=PLANE('',#471);
#45=PLANE('',#474);
#46=PLANE('',#475);
#47=PLANE('',#476);
#48=PLANE('',#480);
#49=PLANE('',#481);
#50=PLANE('',#482);
#51=PLANE('',#486);
#52=PLANE('',#487);
#53=FACE_OUTER_BOUND('',#76,.T.);
#54=FACE_OUTER_BOUND('',#77,.T.);
#55=FACE_OUTER_BOUND('',#78,.T.);
#56=FACE_OUTER_BOUND('',#79,.T.);
#57=FACE_OUTER_BOUND('',#80,.T.);
#58=FACE_OUTER_BOUND('',#81,.T.);
#59=FACE_OUTER_BOUND('',#82,.T.);
#60=FACE_OUTER_BOUND('',#83,.T.);
#61=FACE_OUTER_BOUND('',#84,.T.);
#62=FACE_OUTER_BOUND('',#85,.T.);
#63=FACE_OUTER_BOUND('',#87,.T.);
#64=FACE_OUTER_BOUND('',#89,.T.);
#65=FACE_OUTER_BOUND('',#90,.T.);
#66=FACE_OUTER_BOUND('',#92,.T.);
#67=FACE_OUTER_BOUND('',#93,.T.);
#68=FACE_OUTER_BOUND('',#94,.T.);
#69=FACE_OUTER_BOUND('',#95,.T.);
#70=FACE_OUTER_BOUND('',#96,.T.);
#71=FACE_OUTER_BOUND('',#97,.T.);
#72=FACE_OUTER_BOUND('',#98,.T.);
#73=FACE_OUTER_BOUND('',#99,.T.);
#74=FACE_OUTER_BOUND('',#100,.T.);
#75=FACE_OUTER_BOUND('',#101,.T.);
#76=EDGE_LOOP('',(#285,#286,#287,#288,#289));
#77=EDGE_LOOP('',(#290,#291,#292,#293));
#78=EDGE_LOOP('',(#294,#295,#296,#297));
#79=EDGE_LOOP('',(#298,#299,#300,#301));
#80=EDGE_LOOP('',(#302,#303,#304,#305));
#81=EDGE_LOOP('',(#306,#307,#308,#309,#310));
#82=EDGE_LOOP('',(#311,#312,#313,#314));
#83=EDGE_LOOP('',(#315,#316,#317,#318));
#84=EDGE_LOOP('',(#319,#320,#321,#322,#323,#324,#325,#326,#327,#328,#329,
#330));
#85=EDGE_LOOP('',(#331));
#86=EDGE_LOOP('',(#332));
#87=EDGE_LOOP('',(#333,#334,#335,#336,#337,#338,#339,#340,#341,#342,#343,
#344));
#88=EDGE_LOOP('',(#345,#346,#347,#348));
#89=EDGE_LOOP('',(#349));
#90=EDGE_LOOP('',(#350,#351));
#91=EDGE_LOOP('',(#352,#353,#354,#355,#356));
#92=EDGE_LOOP('',(#357,#358,#359,#360));
#93=EDGE_LOOP('',(#361,#362,#363,#364));
#94=EDGE_LOOP('',(#365,#366,#367,#368));
#95=EDGE_LOOP('',(#369,#370,#371,#372));
#96=EDGE_LOOP('',(#373,#374,#375,#376));
#97=EDGE_LOOP('',(#377,#378,#379,#380));
#98=EDGE_LOOP('',(#381,#382,#383,#384));
#99=EDGE_LOOP('',(#385,#386,#387,#388));
#100=EDGE_LOOP('',(#389,#390,#391,#392,#393,#394,#395,#396));
#101=EDGE_LOOP('',(#397,#398,#399,#400,#401,#402,#403,#404));
#102=LINE('',#622,#141);
#103=LINE('',#643,#142);
#104=LINE('',#676,#143);
#105=LINE('',#696,#144);
#106=LINE('',#699,#145);
#107=LINE('',#701,#146);
#108=LINE('',#702,#147);
#109=LINE('',#705,#148);
#110=LINE('',#707,#149);
#111=LINE('',#708,#150);
#112=LINE('',#711,#151);
#113=LINE('',#713,#152);
#114=LINE('',#714,#153);
#115=LINE('',#725,#154);
#116=LINE('',#727,#155);
#117=LINE('',#728,#156);
#118=LINE('',#733,#157);
#119=LINE('',#741,#158);
#120=LINE('',#743,#159);
#121=LINE('',#753,#160);
#122=LINE('',#755,#161);
#123=LINE('',#757,#162);
#124=LINE('',#758,#163);
#125=LINE('',#761,#164);
#126=LINE('',#763,#165);
#127=LINE('',#764,#166);
#128=LINE('',#767,#167);
#129=LINE('',#769,#168);
#130=LINE('',#770,#169);
#131=LINE('',#776,#170);
#132=LINE('',#779,#171);
#133=LINE('',#781,#172);
#134=LINE('',#782,#173);
#135=LINE('',#785,#174);
#136=LINE('',#787,#175);
#137=LINE('',#788,#176);
#138=LINE('',#791,#177);
#139=LINE('',#793,#178);
#140=LINE('',#794,#179);
#141=VECTOR('',#492,10.);
#142=VECTOR('',#493,10.);
#143=VECTOR('',#496,10.);
#144=VECTOR('',#497,10.);
#145=VECTOR('',#500,10.);
#146=VECTOR('',#501,10.);
#147=VECTOR('',#502,10.);
#148=VECTOR('',#505,10.);
#149=VECTOR('',#506,10.);
#150=VECTOR('',#507,10.);
#151=VECTOR('',#510,10.);
#152=VECTOR('',#511,10.);
#153=VECTOR('',#512,10.);
#154=VECTOR('',#527,10.);
#155=VECTOR('',#530,10.);
#156=VECTOR('',#531,10.);
#157=VECTOR('',#536,25.);
#158=VECTOR('',#549,21.);
#159=VECTOR('',#550,21.);
#160=VECTOR('',#561,10.);
#161=VECTOR('',#562,10.);
#162=VECTOR('',#563,10.);
#163=VECTOR('',#564,10.);
#164=VECTOR('',#567,10.);
#165=VECTOR('',#568,10.);
#166=VECTOR('',#569,10.);
#167=VECTOR('',#572,10.);
#168=VECTOR('',#573,10.);
#169=VECTOR('',#574,10.);
#170=VECTOR('',#581,10.);
#171=VECTOR('',#584,10.);
#172=VECTOR('',#585,10.);
#173=VECTOR('',#586,10.);
#174=VECTOR('',#589,10.);
#175=VECTOR('',#590,10.);
#176=VECTOR('',#591,10.);
#177=VECTOR('',#594,10.);
#178=VECTOR('',#595,10.);
#179=VECTOR('',#596,10.);
#180=B_SPLINE_CURVE_WITH_KNOTS('',3,(#611,#612,#613,#614,#615,#616,#617,
#618,#619,#620),.UNSPECIFIED.,.F.,.F.,(4,2,2,2,4),(0.,0.38399616132878,
0.767992322657559,1.15114959039523,1.53430685813291),.UNSPECIFIED.);
#181=B_SPLINE_CURVE_WITH_KNOTS('',3,(#624,#625,#626,#627,#628,#629,#630,
#631,#632,#633,#634,#635,#636,#637,#638,#639,#640,#641),.UNSPECIFIED.,.F.,
 .F.,(4,2,2,2,2,2,2,2,4),(0.,0.38155766525265,0.763115330505301,1.14428700080459,
1.52545867110387,1.90663034140315,2.28780201170244,2.66935967695509,3.05091734220774),
 .UNSPECIFIED.);
#182=B_SPLINE_CURVE_WITH_KNOTS('',3,(#644,#645,#646,#647,#648,#649,#650,
#651,#652,#653),.UNSPECIFIED.,.F.,.F.,(4,2,2,2,4),(1.53430685813291,1.91746412587058,
2.30062139360825,2.68461755493703,3.06861371626581),.UNSPECIFIED.);
#183=B_SPLINE_CURVE_WITH_KNOTS('',3,(#657,#658,#659,#660,#661,#662,#663,
#664,#665,#666,#667,#668,#669,#670,#671,#672,#673,#674),.UNSPECIFIED.,.F.,
 .F.,(4,2,2,2,2,2,2,2,4),(-3.06861371626581,-2.68461755493703,-2.30062139360825,
-1.91746412587058,-1.53430685813291,-1.15114959039523,-0.767992322657559,
-0.383996161328779,0.),.UNSPECIFIED.);
#184=B_SPLINE_CURVE_WITH_KNOTS('',3,(#678,#679,#680,#681,#682,#683,#684,
#685,#686,#687,#688,#689,#690,#691,#692,#693,#694,#695),.UNSPECIFIED.,.F.,
 .F.,(4,2,2,2,2,2,2,2,4),(-3.05091734220774,-2.66935967695509,-2.28780201170244,
-1.90663034140315,-1.52545867110387,-1.14428700080459,-0.7631153305053,
-0.38155766525265,0.),.UNSPECIFIED.);
#185=VERTEX_POINT('',#609);
#186=VERTEX_POINT('',#610);
#187=VERTEX_POINT('',#621);
#188=VERTEX_POINT('',#623);
#189=VERTEX_POINT('',#642);
#190=VERTEX_POINT('',#655);
#191=VERTEX_POINT('',#656);
#192=VERTEX_POINT('',#675);
#193=VERTEX_POINT('',#677);
#194=VERTEX_POINT('',#698);
#195=VERTEX_POINT('',#700);
#196=VERTEX_POINT('',#704);
#197=VERTEX_POINT('',#706);
#198=VERTEX_POINT('',#710);
#199=VERTEX_POINT('',#712);
#200=VERTEX_POINT('',#716);
#201=VERTEX_POINT('',#721);
#202=VERTEX_POINT('',#723);
#203=VERTEX_POINT('',#730);
#204=VERTEX_POINT('',#732);
#205=VERTEX_POINT('',#738);
#206=VERTEX_POINT('',#742);
#207=VERTEX_POINT('',#747);
#208=VERTEX_POINT('',#748);
#209=VERTEX_POINT('',#751);
#210=VERTEX_POINT('',#752);
#211=VERTEX_POINT('',#754);
#212=VERTEX_POINT('',#756);
#213=VERTEX_POINT('',#760);
#214=VERTEX_POINT('',#762);
#215=VERTEX_POINT('',#766);
#216=VERTEX_POINT('',#768);
#217=VERTEX_POINT('',#772);
#218=VERTEX_POINT('',#774);
#219=VERTEX_POINT('',#778);
#220=VERTEX_POINT('',#780);
#221=VERTEX_POINT('',#784);
#222=VERTEX_POINT('',#786);
#223=VERTEX_POINT('',#790);
#224=VERTEX_POINT('',#792);
#225=EDGE_CURVE('',#185,#186,#180,.T.);
#226=EDGE_CURVE('',#187,#185,#102,.T.);
#227=EDGE_CURVE('',#188,#187,#181,.T.);
#228=EDGE_CURVE('',#188,#189,#103,.T.);
#229=EDGE_CURVE('',#186,#189,#182,.T.);
#230=EDGE_CURVE('',#190,#191,#183,.T.);
#231=EDGE_CURVE('',#190,#192,#104,.T.);
#232=EDGE_CURVE('',#193,#192,#184,.T.);
#233=EDGE_CURVE('',#191,#193,#105,.T.);
#234=EDGE_CURVE('',#194,#185,#106,.T.);
#235=EDGE_CURVE('',#195,#194,#107,.T.);
#236=EDGE_CURVE('',#187,#195,#108,.T.);
#237=EDGE_CURVE('',#191,#196,#109,.T.);
#238=EDGE_CURVE('',#197,#193,#110,.T.);
#239=EDGE_CURVE('',#196,#197,#111,.T.);
#240=EDGE_CURVE('',#189,#198,#112,.T.);
#241=EDGE_CURVE('',#199,#188,#113,.T.);
#242=EDGE_CURVE('',#198,#199,#114,.T.);
#243=EDGE_CURVE('',#198,#200,#21,.T.);
#244=EDGE_CURVE('',#195,#199,#22,.T.);
#245=EDGE_CURVE('',#200,#194,#23,.T.);
#246=EDGE_CURVE('',#196,#201,#24,.T.);
#247=EDGE_CURVE('',#202,#197,#25,.T.);
#248=EDGE_CURVE('',#202,#201,#115,.T.);
#249=EDGE_CURVE('',#201,#190,#116,.T.);
#250=EDGE_CURVE('',#192,#202,#117,.T.);
#251=EDGE_CURVE('',#203,#203,#26,.T.);
#252=EDGE_CURVE('',#203,#204,#118,.T.);
#253=EDGE_CURVE('',#197,#204,#27,.T.);
#254=EDGE_CURVE('',#199,#202,#28,.T.);
#255=EDGE_CURVE('',#204,#195,#29,.T.);
#256=EDGE_CURVE('',#205,#205,#30,.T.);
#257=EDGE_CURVE('',#205,#186,#119,.T.);
#258=EDGE_CURVE('',#200,#206,#120,.T.);
#259=EDGE_CURVE('',#206,#206,#31,.T.);
#260=EDGE_CURVE('',#207,#208,#32,.T.);
#261=EDGE_CURVE('',#209,#210,#121,.T.);
#262=EDGE_CURVE('',#209,#211,#122,.T.);
#263=EDGE_CURVE('',#212,#211,#123,.T.);
#264=EDGE_CURVE('',#210,#212,#124,.T.);
#265=EDGE_CURVE('',#210,#213,#125,.T.);
#266=EDGE_CURVE('',#214,#212,#126,.T.);
#267=EDGE_CURVE('',#213,#214,#127,.T.);
#268=EDGE_CURVE('',#213,#215,#128,.T.);
#269=EDGE_CURVE('',#216,#214,#129,.T.);
#270=EDGE_CURVE('',#215,#216,#130,.T.);
#271=EDGE_CURVE('',#217,#215,#33,.T.);
#272=EDGE_CURVE('',#218,#216,#34,.T.);
#273=EDGE_CURVE('',#217,#218,#131,.T.);
#274=EDGE_CURVE('',#217,#219,#132,.T.);
#275=EDGE_CURVE('',#220,#218,#133,.T.);
#276=EDGE_CURVE('',#219,#220,#134,.T.);
#277=EDGE_CURVE('',#219,#221,#135,.T.);
#278=EDGE_CURVE('',#222,#220,#136,.T.);
#279=EDGE_CURVE('',#221,#222,#137,.T.);
#280=EDGE_CURVE('',#221,#223,#138,.T.);
#281=EDGE_CURVE('',#224,#222,#139,.T.);
#282=EDGE_CURVE('',#223,#224,#140,.T.);
#283=EDGE_CURVE('',#209,#223,#35,.T.);
#284=EDGE_CURVE('',#211,#224,#36,.T.);
#285=ORIENTED_EDGE('',*,*,#225,.F.);
#286=ORIENTED_EDGE('',*,*,#226,.F.);
#287=ORIENTED_EDGE('',*,*,#227,.F.);
#288=ORIENTED_EDGE('',*,*,#228,.T.);
#289=ORIENTED_EDGE('',*,*,#229,.F.);
#290=ORIENTED_EDGE('',*,*,#230,.F.);
#291=ORIENTED_EDGE('',*,*,#231,.T.);
#292=ORIENTED_EDGE('',*,*,#232,.F.);
#293=ORIENTED_EDGE('',*,*,#233,.F.);
#294=ORIENTED_EDGE('',*,*,#234,.F.);
#295=ORIENTED_EDGE('',*,*,#235,.F.);
#296=ORIENTED_EDGE('',*,*,#236,.F.);
#297=ORIENTED_EDGE('',*,*,#226,.T.);
#298=ORIENTED_EDGE('',*,*,#237,.F.);
#299=ORIENTED_EDGE('',*,*,#233,.T.);
#300=ORIENTED_EDGE('',*,*,#238,.F.);
#301=ORIENTED_EDGE('',*,*,#239,.F.);
#302=ORIENTED_EDGE('',*,*,#240,.F.);
#303=ORIENTED_EDGE('',*,*,#228,.F.);
#304=ORIENTED_EDGE('',*,*,#241,.F.);
#305=ORIENTED_EDGE('',*,*,#242,.F.);
#306=ORIENTED_EDGE('',*,*,#243,.F.);
#307=ORIENTED_EDGE('',*,*,#242,.T.);
#308=ORIENTED_EDGE('',*,*,#244,.F.);
#309=ORIENTED_EDGE('',*,*,#235,.T.);
#310=ORIENTED_EDGE('',*,*,#245,.F.);
#311=ORIENTED_EDGE('',*,*,#246,.F.);
#312=ORIENTED_EDGE('',*,*,#239,.T.);
#313=ORIENTED_EDGE('',*,*,#247,.F.);
#314=ORIENTED_EDGE('',*,*,#248,.T.);
#315=ORIENTED_EDGE('',*,*,#249,.F.);
#316=ORIENTED_EDGE('',*,*,#248,.F.);
#317=ORIENTED_EDGE('',*,*,#250,.F.);
#318=ORIENTED_EDGE('',*,*,#231,.F.);
#319=ORIENTED_EDGE('',*,*,#251,.T.);
#320=ORIENTED_EDGE('',*,*,#252,.T.);
#321=ORIENTED_EDGE('',*,*,#253,.F.);
#322=ORIENTED_EDGE('',*,*,#238,.T.);
#323=ORIENTED_EDGE('',*,*,#232,.T.);
#324=ORIENTED_EDGE('',*,*,#250,.T.);
#325=ORIENTED_EDGE('',*,*,#254,.F.);
#326=ORIENTED_EDGE('',*,*,#241,.T.);
#327=ORIENTED_EDGE('',*,*,#227,.T.);
#328=ORIENTED_EDGE('',*,*,#236,.T.);
#329=ORIENTED_EDGE('',*,*,#255,.F.);
#330=ORIENTED_EDGE('',*,*,#252,.F.);
#331=ORIENTED_EDGE('',*,*,#251,.F.);
#332=ORIENTED_EDGE('',*,*,#256,.F.);
#333=ORIENTED_EDGE('',*,*,#256,.T.);
#334=ORIENTED_EDGE('',*,*,#257,.T.);
#335=ORIENTED_EDGE('',*,*,#229,.T.);
#336=ORIENTED_EDGE('',*,*,#240,.T.);
#337=ORIENTED_EDGE('',*,*,#243,.T.);
#338=ORIENTED_EDGE('',*,*,#258,.T.);
#339=ORIENTED_EDGE('',*,*,#259,.T.);
#340=ORIENTED_EDGE('',*,*,#258,.F.);
#341=ORIENTED_EDGE('',*,*,#245,.T.);
#342=ORIENTED_EDGE('',*,*,#234,.T.);
#343=ORIENTED_EDGE('',*,*,#225,.T.);
#344=ORIENTED_EDGE('',*,*,#257,.F.);
#345=ORIENTED_EDGE('',*,*,#246,.T.);
#346=ORIENTED_EDGE('',*,*,#249,.T.);
#347=ORIENTED_EDGE('',*,*,#230,.T.);
#348=ORIENTED_EDGE('',*,*,#237,.T.);
#349=ORIENTED_EDGE('',*,*,#259,.F.);
#350=ORIENTED_EDGE('',*,*,#260,.T.);
#351=ORIENTED_EDGE('',*,*,#260,.F.);
#352=ORIENTED_EDGE('',*,*,#253,.T.);
#353=ORIENTED_EDGE('',*,*,#255,.T.);
#354=ORIENTED_EDGE('',*,*,#244,.T.);
#355=ORIENTED_EDGE('',*,*,#254,.T.);
#356=ORIENTED_EDGE('',*,*,#247,.T.);
#357=ORIENTED_EDGE('',*,*,#261,.F.);
#358=ORIENTED_EDGE('',*,*,#262,.T.);
#359=ORIENTED_EDGE('',*,*,#263,.F.);
#360=ORIENTED_EDGE('',*,*,#264,.F.);
#361=ORIENTED_EDGE('',*,*,#265,.F.);
#362=ORIENTED_EDGE('',*,*,#264,.T.);
#363=ORIENTED_EDGE('',*,*,#266,.F.);
#364=ORIENTED_EDGE('',*,*,#267,.F.);
#365=ORIENTED_EDGE('',*,*,#268,.F.);
#366=ORIENTED_EDGE('',*,*,#267,.T.);
#367=ORIENTED_EDGE('',*,*,#269,.F.);
#368=ORIENTED_EDGE('',*,*,#270,.F.);
#369=ORIENTED_EDGE('',*,*,#271,.T.);
#370=ORIENTED_EDGE('',*,*,#270,.T.);
#371=ORIENTED_EDGE('',*,*,#272,.F.);
#372=ORIENTED_EDGE('',*,*,#273,.F.);
#373=ORIENTED_EDGE('',*,*,#274,.F.);
#374=ORIENTED_EDGE('',*,*,#273,.T.);
#375=ORIENTED_EDGE('',*,*,#275,.F.);
#376=ORIENTED_EDGE('',*,*,#276,.F.);
#377=ORIENTED_EDGE('',*,*,#277,.F.);
#378=ORIENTED_EDGE('',*,*,#276,.T.);
#379=ORIENTED_EDGE('',*,*,#278,.F.);
#380=ORIENTED_EDGE('',*,*,#279,.F.);
#381=ORIENTED_EDGE('',*,*,#280,.F.);
#382=ORIENTED_EDGE('',*,*,#279,.T.);
#383=ORIENTED_EDGE('',*,*,#281,.F.);
#384=ORIENTED_EDGE('',*,*,#282,.F.);
#385=ORIENTED_EDGE('',*,*,#283,.T.);
#386=ORIENTED_EDGE('',*,*,#282,.T.);
#387=ORIENTED_EDGE('',*,*,#284,.F.);
#388=ORIENTED_EDGE('',*,*,#262,.F.);
#389=ORIENTED_EDGE('',*,*,#284,.T.);
#390=ORIENTED_EDGE('',*,*,#281,.T.);
#391=ORIENTED_EDGE('',*,*,#278,.T.);
#392=ORIENTED_EDGE('',*,*,#275,.T.);
#393=ORIENTED_EDGE('',*,*,#272,.T.);
#394=ORIENTED_EDGE('',*,*,#269,.T.);
#395=ORIENTED_EDGE('',*,*,#266,.T.);
#396=ORIENTED_EDGE('',*,*,#263,.T.);
#397=ORIENTED_EDGE('',*,*,#283,.F.);
#398=ORIENTED_EDGE('',*,*,#261,.T.);
#399=ORIENTED_EDGE('',*,*,#265,.T.);
#400=ORIENTED_EDGE('',*,*,#268,.T.);
#401=ORIENTED_EDGE('',*,*,#271,.F.);
#402=ORIENTED_EDGE('',*,*,#274,.T.);
#403=ORIENTED_EDGE('',*,*,#277,.T.);
#404=ORIENTED_EDGE('',*,*,#280,.T.);
#405=CYLINDRICAL_SURFACE('',#449,10.);
#406=CYLINDRICAL_SURFACE('',#450,10.);
#407=CYLINDRICAL_SURFACE('',#462,25.);
#408=CYLINDRICAL_SURFACE('',#469,21.);
#409=CYLINDRICAL_SURFACE('',#477,21.);
#410=CYLINDRICAL_SURFACE('',#483,21.);
#411=ADVANCED_FACE('',(#53),#405,.F.);
#412=ADVANCED_FACE('',(#54),#406,.F.);
#413=ADVANCED_FACE('',(#55),#37,.F.);
#414=ADVANCED_FACE('',(#56),#38,.F.);
#415=ADVANCED_FACE('',(#57),#39,.F.);
#416=ADVANCED_FACE('',(#58),#40,.F.);
#417=ADVANCED_FACE('',(#59),#41,.F.);
#418=ADVANCED_FACE('',(#60),#42,.F.);
#419=ADVANCED_FACE('',(#61),#407,.T.);
#420=ADVANCED_FACE('',(#62,#18),#43,.T.);
#421=ADVANCED_FACE('',(#63,#19),#408,.F.);
#422=ADVANCED_FACE('',(#64),#44,.F.);
#423=ADVANCED_FACE('',(#65,#20),#17,.T.);
#424=ADVANCED_FACE('',(#66),#45,.T.);
#425=ADVANCED_FACE('',(#67),#46,.T.);
#426=ADVANCED_FACE('',(#68),#47,.T.);
#427=ADVANCED_FACE('',(#69),#409,.T.);
#428=ADVANCED_FACE('',(#70),#48,.T.);
#429=ADVANCED_FACE('',(#71),#49,.T.);
#430=ADVANCED_FACE('',(#72),#50,.T.);
#431=ADVANCED_FACE('',(#73),#410,.T.);
#432=ADVANCED_FACE('',(#74),#51,.T.);
#433=ADVANCED_FACE('',(#75),#52,.F.);
#434=CLOSED_SHELL('',(#411,#412,#413,#414,#415,#416,#417,#418,#419,#420,
#421,#422,#423));
#435=CLOSED_SHELL('',(#424,#425,#426,#427,#428,#429,#430,#431,#432,#433));
#436=DERIVED_UNIT_ELEMENT(#438,1.);
#437=DERIVED_UNIT_ELEMENT(#805,-3.);
#438=(
MASS_UNIT()
NAMED_UNIT(*)
SI_UNIT(.KILO.,.GRAM.)
);
#439=DERIVED_UNIT((#436,#437));
#440=MEASURE_REPRESENTATION_ITEM('density measure',
POSITIVE_RATIO_MEASURE(7850.),#439);
#441=PROPERTY_DEFINITION_REPRESENTATION(#446,#443);
#442=PROPERTY_DEFINITION_REPRESENTATION(#447,#444);
#443=REPRESENTATION('material name',(#445),#802);
#444=REPRESENTATION('density',(#440),#802);
#445=DESCRIPTIVE_REPRESENTATION_ITEM('Steel','Steel');
#446=PROPERTY_DEFINITION('material property','material name',#812);
#447=PROPERTY_DEFINITION('material property','density of part',#812);
#448=AXIS2_PLACEMENT_3D('',#607,#488,#489);
#449=AXIS2_PLACEMENT_3D('',#608,#490,#491);
#450=AXIS2_PLACEMENT_3D('',#654,#494,#495);
#451=AXIS2_PLACEMENT_3D('',#697,#498,#499);
#452=AXIS2_PLACEMENT_3D('',#703,#503,#504);
#453=AXIS2_PLACEMENT_3D('',#709,#508,#509);
#454=AXIS2_PLACEMENT_3D('',#715,#513,#514);
#455=AXIS2_PLACEMENT_3D('',#717,#515,#516);
#456=AXIS2_PLACEMENT_3D('',#718,#517,#518);
#457=AXIS2_PLACEMENT_3D('',#719,#519,#520);
#458=AXIS2_PLACEMENT_3D('',#720,#521,#522);
#459=AXIS2_PLACEMENT_3D('',#722,#523,#524);
#460=AXIS2_PLACEMENT_3D('',#724,#525,#526);
#461=AXIS2_PLACEMENT_3D('',#726,#528,#529);
#462=AXIS2_PLACEMENT_3D('',#729,#532,#533);
#463=AXIS2_PLACEMENT_3D('',#731,#534,#535);
#464=AXIS2_PLACEMENT_3D('',#734,#537,#538);
#465=AXIS2_PLACEMENT_3D('',#735,#539,#540);
#466=AXIS2_PLACEMENT_3D('',#736,#541,#542);
#467=AXIS2_PLACEMENT_3D('',#737,#543,#544);
#468=AXIS2_PLACEMENT_3D('',#739,#545,#546);
#469=AXIS2_PLACEMENT_3D('',#740,#547,#548);
#470=AXIS2_PLACEMENT_3D('',#744,#551,#552);
#471=AXIS2_PLACEMENT_3D('',#745,#553,#554);
#472=AXIS2_PLACEMENT_3D('',#746,#555,#556);
#473=AXIS2_PLACEMENT_3D('',#749,#557,#558);
#474=AXIS2_PLACEMENT_3D('',#750,#559,#560);
#475=AXIS2_PLACEMENT_3D('',#759,#565,#566);
#476=AXIS2_PLACEMENT_3D('',#765,#570,#571);
#477=AXIS2_PLACEMENT_3D('',#771,#575,#576);
#478=AXIS2_PLACEMENT_3D('',#773,#577,#578);
#479=AXIS2_PLACEMENT_3D('',#775,#579,#580);
#480=AXIS2_PLACEMENT_3D('',#777,#582,#583);
#481=AXIS2_PLACEMENT_3D('',#783,#587,#588);
#482=AXIS2_PLACEMENT_3D('',#789,#592,#593);
#483=AXIS2_PLACEMENT_3D('',#795,#597,#598);
#484=AXIS2_PLACEMENT_3D('',#796,#599,#600);
#485=AXIS2_PLACEMENT_3D('',#797,#601,#602);
#486=AXIS2_PLACEMENT_3D('',#798,#603,#604);
#487=AXIS2_PLACEMENT_3D('',#799,#605,#606);
#488=DIRECTION('axis',(0.,0.,1.));
#489=DIRECTION('refdir',(1.,0.,0.));
#490=DIRECTION('center_axis',(0.,0.,1.));
#491=DIRECTION('ref_axis',(1.,0.,0.));
#492=DIRECTION('',(0.,0.,1.));
#493=DIRECTION('',(0.,0.,1.));
#494=DIRECTION('center_axis',(0.,0.,1.));
#495=DIRECTION('ref_axis',(1.,0.,0.));
#496=DIRECTION('',(0.,0.,1.));
#497=DIRECTION('',(0.,0.,1.));
#498=DIRECTION('center_axis',(-1.,-8.88178419700125E-17,0.));
#499=DIRECTION('ref_axis',(8.88178419700125E-17,-1.,0.));
#500=DIRECTION('',(0.,1.,0.));
#501=DIRECTION('',(0.,0.,1.));
#502=DIRECTION('',(0.,-1.,0.));
#503=DIRECTION('center_axis',(-1.,-8.88178419700125E-17,0.));
#504=DIRECTION('ref_axis',(8.88178419700125E-17,-1.,0.));
#505=DIRECTION('',(0.,-1.,0.));
#506=DIRECTION('',(0.,1.,0.));
#507=DIRECTION('',(0.,0.,1.));
#508=DIRECTION('center_axis',(1.,-8.88178419700125E-17,0.));
#509=DIRECTION('ref_axis',(8.88178419700125E-17,1.,0.));
#510=DIRECTION('',(0.,-1.,0.));
#511=DIRECTION('',(0.,1.,0.));
#512=DIRECTION('',(0.,0.,-1.));
#513=DIRECTION('center_axis',(0.,-1.,0.));
#514=DIRECTION('ref_axis',(1.,0.,0.));
#515=DIRECTION('center_axis',(0.,1.,0.));
#516=DIRECTION('ref_axis',(0.,0.,1.));
#517=DIRECTION('center_axis',(0.,-1.,0.));
#518=DIRECTION('ref_axis',(1.,0.,0.));
#519=DIRECTION('center_axis',(0.,1.,0.));
#520=DIRECTION('ref_axis',(0.,0.,1.));
#521=DIRECTION('center_axis',(0.,-1.,0.));
#522=DIRECTION('ref_axis',(1.,0.,0.));
#523=DIRECTION('center_axis',(0.,1.,0.));
#524=DIRECTION('ref_axis',(0.,0.,1.));
#525=DIRECTION('center_axis',(0.,-1.,0.));
#526=DIRECTION('ref_axis',(1.,0.,0.));
#527=DIRECTION('',(0.,0.,-1.));
#528=DIRECTION('center_axis',(1.,-8.88178419700125E-17,0.));
#529=DIRECTION('ref_axis',(8.88178419700125E-17,1.,0.));
#530=DIRECTION('',(0.,1.,0.));
#531=DIRECTION('',(0.,-1.,0.));
#532=DIRECTION('center_axis',(0.,1.,0.));
#533=DIRECTION('ref_axis',(1.,0.,0.));
#534=DIRECTION('center_axis',(0.,-1.,0.));
#535=DIRECTION('ref_axis',(1.,0.,0.));
#536=DIRECTION('',(0.,-1.,0.));
#537=DIRECTION('center_axis',(0.,-1.,0.));
#538=DIRECTION('ref_axis',(1.,0.,0.));
#539=DIRECTION('center_axis',(0.,-1.,0.));
#540=DIRECTION('ref_axis',(1.,0.,0.));
#541=DIRECTION('center_axis',(0.,-1.,0.));
#542=DIRECTION('ref_axis',(1.,0.,0.));
#543=DIRECTION('center_axis',(0.,1.,0.));
#544=DIRECTION('ref_axis',(1.,0.,0.));
#545=DIRECTION('center_axis',(0.,1.,0.));
#546=DIRECTION('ref_axis',(0.,0.,1.));
#547=DIRECTION('center_axis',(0.,-1.,0.));
#548=DIRECTION('ref_axis',(0.,0.,1.));
#549=DIRECTION('',(0.,-1.,0.));
#550=DIRECTION('',(0.,-1.,0.));
#551=DIRECTION('center_axis',(0.,-1.,0.));
#552=DIRECTION('ref_axis',(0.,0.,1.));
#553=DIRECTION('center_axis',(0.,-1.,0.));
#554=DIRECTION('ref_axis',(0.,0.,1.));
#555=DIRECTION('center_axis',(6.12323399573677E-17,0.,1.));
#556=DIRECTION('ref_axis',(1.,0.,0.));
#557=DIRECTION('center_axis',(1.22464679914735E-16,-1.,0.));
#558=DIRECTION('ref_axis',(-1.,-1.22464679914735E-16,0.));
#559=DIRECTION('center_axis',(1.,0.,0.));
#560=DIRECTION('ref_axis',(0.,0.,-1.));
#561=DIRECTION('',(0.,0.,1.));
#562=DIRECTION('',(0.,1.,0.));
#563=DIRECTION('',(0.,0.,-1.));
#564=DIRECTION('',(0.,1.,0.));
#565=DIRECTION('center_axis',(0.,0.,1.));
#566=DIRECTION('ref_axis',(1.,0.,0.));
#567=DIRECTION('',(-1.,0.,0.));
#568=DIRECTION('',(1.,0.,0.));
#569=DIRECTION('',(0.,1.,0.));
#570=DIRECTION('center_axis',(-1.,0.,0.));
#571=DIRECTION('ref_axis',(0.,0.,1.));
#572=DIRECTION('',(0.,0.,-1.));
#573=DIRECTION('',(0.,0.,1.));
#574=DIRECTION('',(0.,1.,0.));
#575=DIRECTION('center_axis',(0.,1.,0.));
#576=DIRECTION('ref_axis',(-1.,0.,-1.22464679914735E-16));
#577=DIRECTION('center_axis',(0.,1.,0.));
#578=DIRECTION('ref_axis',(1.,0.,0.));
#579=DIRECTION('center_axis',(0.,1.,0.));
#580=DIRECTION('ref_axis',(1.,0.,0.));
#581=DIRECTION('',(0.,1.,0.));
#582=DIRECTION('center_axis',(-1.,0.,0.));
#583=DIRECTION('ref_axis',(0.,0.,1.));
#584=DIRECTION('',(0.,0.,-1.));
#585=DIRECTION('',(0.,0.,1.));
#586=DIRECTION('',(0.,1.,0.));
#587=DIRECTION('center_axis',(0.,0.,-1.));
#588=DIRECTION('ref_axis',(-1.,0.,0.));
#589=DIRECTION('',(1.,0.,0.));
#590=DIRECTION('',(-1.,0.,0.));
#591=DIRECTION('',(0.,1.,0.));
#592=DIRECTION('center_axis',(1.,0.,0.));
#593=DIRECTION('ref_axis',(0.,0.,-1.));
#594=DIRECTION('',(0.,0.,1.));
#595=DIRECTION('',(0.,0.,-1.));
#596=DIRECTION('',(0.,1.,0.));
#597=DIRECTION('center_axis',(0.,1.,0.));
#598=DIRECTION('ref_axis',(1.,0.,0.));
#599=DIRECTION('center_axis',(0.,1.,0.));
#600=DIRECTION('ref_axis',(1.,0.,0.));
#601=DIRECTION('center_axis',(0.,1.,0.));
#602=DIRECTION('ref_axis',(1.,0.,0.));
#603=DIRECTION('center_axis',(0.,1.,0.));
#604=DIRECTION('ref_axis',(1.,0.,0.));
#605=DIRECTION('center_axis',(0.,1.,0.));
#606=DIRECTION('ref_axis',(1.,0.,0.));
#607=CARTESIAN_POINT('',(0.,0.,0.));
#608=CARTESIAN_POINT('Origin',(9.99200722162641E-15,131.224989991992,0.));
#609=CARTESIAN_POINT('',(-10.,131.224989991992,-18.4661853126194));
#610=CARTESIAN_POINT('',(6.14310487183978E-15,141.224989991992,-21.));
#611=CARTESIAN_POINT('Ctrl Pts',(-9.99999999999999,131.224989991992,-18.4661853126194));
#612=CARTESIAN_POINT('Ctrl Pts',(-9.99999999999999,132.504977196421,-18.4661853126194));
#613=CARTESIAN_POINT('Ctrl Pts',(-9.73994134737776,133.852589623227,-18.6134289276198));
#614=CARTESIAN_POINT('Ctrl Pts',(-8.71386292669993,136.308233882333,-19.1153016078061));
#615=CARTESIAN_POINT('Ctrl Pts',(-7.94853794628048,137.418587669442,-19.4599372538364));
#616=CARTESIAN_POINT('Ctrl Pts',(-6.19551463430127,139.171610981422,-20.0868171103636));
#617=CARTESIAN_POINT('Ctrl Pts',(-5.08449287394807,139.938355532055,-20.4135164230336));
#618=CARTESIAN_POINT('Ctrl Pts',(-2.62602277751552,140.96556572171,-20.8726549711335));
#619=CARTESIAN_POINT('Ctrl Pts',(-1.2771908924589,141.224989991992,-21.));
#620=CARTESIAN_POINT('Ctrl Pts',(1.08246744900953E-14,141.224989991992,
-21.));
#621=CARTESIAN_POINT('',(-10.,131.224989991992,-22.9128784747792));
#622=CARTESIAN_POINT('',(-10.,131.224989991992,0.));
#623=CARTESIAN_POINT('',(10.,131.224989991992,-22.9128784747792));
#624=CARTESIAN_POINT('Ctrl Pts',(10.,131.224989991992,-22.9128784747792));
#625=CARTESIAN_POINT('Ctrl Pts',(10.,132.496848876167,-22.9128784747792));
#626=CARTESIAN_POINT('Ctrl Pts',(9.74289100360328,133.842192982551,-23.0299791689273));
#627=CARTESIAN_POINT('Ctrl Pts',(8.71832955570114,136.300857614706,-23.4370342433966));
#628=CARTESIAN_POINT('Ctrl Pts',(7.95147225832853,137.415653357394,-23.7195405089756));
#629=CARTESIAN_POINT('Ctrl Pts',(6.1915540084276,139.175571607295,-24.2385120878518));
#630=CARTESIAN_POINT('Ctrl Pts',(5.07642115342559,139.943104355635,-24.5108038279582));
#631=CARTESIAN_POINT('Ctrl Pts',(2.61644153847049,140.968182830268,-24.8938504427037));
#632=CARTESIAN_POINT('Ctrl Pts',(1.27057223433096,141.224989991992,-25.));
#633=CARTESIAN_POINT('Ctrl Pts',(-1.27057223433094,141.224989991992,-25.));
#634=CARTESIAN_POINT('Ctrl Pts',(-2.61644153847047,140.968182830268,-24.8938504427037));
#635=CARTESIAN_POINT('Ctrl Pts',(-5.07642115342557,139.943104355635,-24.5108038279582));
#636=CARTESIAN_POINT('Ctrl Pts',(-6.19155400842758,139.175571607295,-24.2385120878518));
#637=CARTESIAN_POINT('Ctrl Pts',(-7.95147225832851,137.415653357394,-23.7195405089756));
#638=CARTESIAN_POINT('Ctrl Pts',(-8.71832955570112,136.300857614706,-23.4370342433966));
#639=CARTESIAN_POINT('Ctrl Pts',(-9.74289100360326,133.842192982551,-23.0299791689273));
#640=CARTESIAN_POINT('Ctrl Pts',(-9.99999999999999,132.496848876167,-22.9128784747792));
#641=CARTESIAN_POINT('Ctrl Pts',(-9.99999999999999,131.224989991992,-22.9128784747792));
#642=CARTESIAN_POINT('',(10.,131.224989991992,-18.4661853126194));
#643=CARTESIAN_POINT('',(10.,131.224989991992,0.));
#644=CARTESIAN_POINT('Ctrl Pts',(9.43689570931383E-15,141.224989991992,
-21.));
#645=CARTESIAN_POINT('Ctrl Pts',(1.27719089245892,141.224989991992,-21.));
#646=CARTESIAN_POINT('Ctrl Pts',(2.62602277751553,140.96556572171,-20.8726549711335));
#647=CARTESIAN_POINT('Ctrl Pts',(5.08449287394808,139.938355532055,-20.4135164230336));
#648=CARTESIAN_POINT('Ctrl Pts',(6.19551463430129,139.171610981422,-20.0868171103636));
#649=CARTESIAN_POINT('Ctrl Pts',(7.9485379462805,137.418587669442,-19.4599372538364));
#650=CARTESIAN_POINT('Ctrl Pts',(8.71386292669995,136.308233882333,-19.1153016078061));
#651=CARTESIAN_POINT('Ctrl Pts',(9.73994134737778,133.852589623227,-18.6134289276198));
#652=CARTESIAN_POINT('Ctrl Pts',(10.,132.504977196421,-18.4661853126194));
#653=CARTESIAN_POINT('Ctrl Pts',(10.,131.224989991992,-18.4661853126194));
#654=CARTESIAN_POINT('Origin',(9.99200722162641E-15,131.224989991992,0.));
#655=CARTESIAN_POINT('',(10.,131.224989991992,18.4661853126194));
#656=CARTESIAN_POINT('',(-10.,131.224989991992,18.4661853126194));
#657=CARTESIAN_POINT('Ctrl Pts',(10.,131.224989991992,18.4661853126194));
#658=CARTESIAN_POINT('Ctrl Pts',(10.,132.504977196421,18.4661853126194));
#659=CARTESIAN_POINT('Ctrl Pts',(9.73994134737778,133.852589623227,18.6134289276198));
#660=CARTESIAN_POINT('Ctrl Pts',(8.71386292669995,136.308233882333,19.1153016078061));
#661=CARTESIAN_POINT('Ctrl Pts',(7.9485379462805,137.418587669442,19.4599372538364));
#662=CARTESIAN_POINT('Ctrl Pts',(6.19551463430129,139.171610981422,20.0868171103636));
#663=CARTESIAN_POINT('Ctrl Pts',(5.08449287394808,139.938355532055,20.4135164230336));
#664=CARTESIAN_POINT('Ctrl Pts',(2.62602277751553,140.96556572171,20.8726549711335));
#665=CARTESIAN_POINT('Ctrl Pts',(1.27719089245892,141.224989991992,21.));
#666=CARTESIAN_POINT('Ctrl Pts',(-1.2771908924589,141.224989991992,21.));
#667=CARTESIAN_POINT('Ctrl Pts',(-2.62602277751551,140.96556572171,20.8726549711335));
#668=CARTESIAN_POINT('Ctrl Pts',(-5.08449287394805,139.938355532055,20.4135164230336));
#669=CARTESIAN_POINT('Ctrl Pts',(-6.19551463430127,139.171610981422,20.0868171103636));
#670=CARTESIAN_POINT('Ctrl Pts',(-7.94853794628048,137.418587669442,19.4599372538364));
#671=CARTESIAN_POINT('Ctrl Pts',(-8.71386292669993,136.308233882333,19.1153016078061));
#672=CARTESIAN_POINT('Ctrl Pts',(-9.73994134737776,133.852589623227,18.6134289276198));
#673=CARTESIAN_POINT('Ctrl Pts',(-9.99999999999999,132.504977196421,18.4661853126194));
#674=CARTESIAN_POINT('Ctrl Pts',(-9.99999999999999,131.224989991992,18.4661853126194));
#675=CARTESIAN_POINT('',(10.,131.224989991992,22.9128784747792));
#676=CARTESIAN_POINT('',(10.,131.224989991992,0.));
#677=CARTESIAN_POINT('',(-10.,131.224989991992,22.9128784747792));
#678=CARTESIAN_POINT('Ctrl Pts',(-9.99999999999999,131.224989991992,22.9128784747792));
#679=CARTESIAN_POINT('Ctrl Pts',(-9.99999999999999,132.496848876167,22.9128784747792));
#680=CARTESIAN_POINT('Ctrl Pts',(-9.74289100360326,133.842192982551,23.0299791689273));
#681=CARTESIAN_POINT('Ctrl Pts',(-8.71832955570112,136.300857614706,23.4370342433966));
#682=CARTESIAN_POINT('Ctrl Pts',(-7.95147225832851,137.415653357394,23.7195405089756));
#683=CARTESIAN_POINT('Ctrl Pts',(-6.19155400842758,139.175571607295,24.2385120878518));
#684=CARTESIAN_POINT('Ctrl Pts',(-5.07642115342557,139.943104355635,24.5108038279582));
#685=CARTESIAN_POINT('Ctrl Pts',(-2.61644153847047,140.968182830268,24.8938504427037));
#686=CARTESIAN_POINT('Ctrl Pts',(-1.27057223433094,141.224989991992,25.));
#687=CARTESIAN_POINT('Ctrl Pts',(1.27057223433096,141.224989991992,25.));
#688=CARTESIAN_POINT('Ctrl Pts',(2.61644153847049,140.968182830268,24.8938504427037));
#689=CARTESIAN_POINT('Ctrl Pts',(5.07642115342559,139.943104355635,24.5108038279582));
#690=CARTESIAN_POINT('Ctrl Pts',(6.1915540084276,139.175571607295,24.2385120878518));
#691=CARTESIAN_POINT('Ctrl Pts',(7.95147225832853,137.415653357394,23.7195405089756));
#692=CARTESIAN_POINT('Ctrl Pts',(8.71832955570114,136.300857614706,23.4370342433966));
#693=CARTESIAN_POINT('Ctrl Pts',(9.74289100360328,133.842192982551,23.0299791689273));
#694=CARTESIAN_POINT('Ctrl Pts',(10.,132.496848876167,22.9128784747792));
#695=CARTESIAN_POINT('Ctrl Pts',(10.,131.224989991992,22.9128784747792));
#696=CARTESIAN_POINT('',(-10.,131.224989991992,0.));
#697=CARTESIAN_POINT('Origin',(-10.,131.224989991992,0.));
#698=CARTESIAN_POINT('',(-10.,31.224989991992,-18.4661853126194));
#699=CARTESIAN_POINT('',(-10.,115.,-18.4661853126194));
#700=CARTESIAN_POINT('',(-10.,31.224989991992,-22.9128784747792));
#701=CARTESIAN_POINT('',(-10.,31.224989991992,0.));
#702=CARTESIAN_POINT('',(-10.,0.,-22.9128784747792));
#703=CARTESIAN_POINT('Origin',(-10.,131.224989991992,0.));
#704=CARTESIAN_POINT('',(-10.,31.224989991992,18.4661853126194));
#705=CARTESIAN_POINT('',(-10.,115.,18.4661853126194));
#706=CARTESIAN_POINT('',(-10.,31.224989991992,22.9128784747792));
#707=CARTESIAN_POINT('',(-10.,0.,22.9128784747792));
#708=CARTESIAN_POINT('',(-10.,31.224989991992,0.));
#709=CARTESIAN_POINT('Origin',(10.,31.224989991992,0.));
#710=CARTESIAN_POINT('',(10.,31.224989991992,-18.4661853126194));
#711=CARTESIAN_POINT('',(10.,115.,-18.4661853126194));
#712=CARTESIAN_POINT('',(10.,31.224989991992,-22.9128784747792));
#713=CARTESIAN_POINT('',(10.,0.,-22.9128784747792));
#714=CARTESIAN_POINT('',(10.,31.224989991992,0.));
#715=CARTESIAN_POINT('Origin',(-10.,31.224989991992,0.));
#716=CARTESIAN_POINT('',(2.57175827820944E-15,31.224989991992,-21.));
#717=CARTESIAN_POINT('Origin',(0.,31.224989991992,0.));
#718=CARTESIAN_POINT('Origin',(0.,31.224989991992,0.));
#719=CARTESIAN_POINT('Origin',(0.,31.224989991992,0.));
#720=CARTESIAN_POINT('Origin',(-10.,31.224989991992,0.));
#721=CARTESIAN_POINT('',(10.,31.224989991992,18.4661853126194));
#722=CARTESIAN_POINT('Origin',(0.,31.224989991992,0.));
#723=CARTESIAN_POINT('',(10.,31.224989991992,22.9128784747792));
#724=CARTESIAN_POINT('Origin',(0.,31.224989991992,0.));
#725=CARTESIAN_POINT('',(10.,31.224989991992,0.));
#726=CARTESIAN_POINT('Origin',(10.,31.224989991992,0.));
#727=CARTESIAN_POINT('',(10.,115.,18.4661853126194));
#728=CARTESIAN_POINT('',(10.,0.,22.9128784747792));
#729=CARTESIAN_POINT('Origin',(0.,0.,0.));
#730=CARTESIAN_POINT('',(-25.,180.,4.44089209850063E-15));
#731=CARTESIAN_POINT('Origin',(0.,180.,0.));
#732=CARTESIAN_POINT('',(-25.,31.224989991992,3.06161699786838E-15));
#733=CARTESIAN_POINT('',(-25.,0.,3.06161699786838E-15));
#734=CARTESIAN_POINT('Origin',(0.,31.224989991992,0.));
#735=CARTESIAN_POINT('Origin',(0.,31.224989991992,0.));
#736=CARTESIAN_POINT('Origin',(0.,31.224989991992,0.));
#737=CARTESIAN_POINT('Origin',(0.,180.,0.));
#738=CARTESIAN_POINT('',(2.57175827820944E-15,180.,-21.));
#739=CARTESIAN_POINT('Origin',(0.,180.,0.));
#740=CARTESIAN_POINT('Origin',(0.,115.,0.));
#741=CARTESIAN_POINT('',(2.57175827820944E-15,115.,-21.));
#742=CARTESIAN_POINT('',(2.57175827820944E-15,30.,-21.));
#743=CARTESIAN_POINT('',(2.57175827820944E-15,115.,-21.));
#744=CARTESIAN_POINT('Origin',(0.,30.,0.));
#745=CARTESIAN_POINT('Origin',(0.,30.,0.));
#746=CARTESIAN_POINT('Origin',(0.,0.,0.));
#747=CARTESIAN_POINT('',(-2.44929359829471E-15,-2.99951956532372E-31,40.));
#748=CARTESIAN_POINT('',(-2.44929359829471E-15,-2.99951956532372E-31,-40.));
#749=CARTESIAN_POINT('Origin',(0.,0.,0.));
#750=CARTESIAN_POINT('Origin',(83.8521805985205,0.,177.011326999458));
#751=CARTESIAN_POINT('',(83.8521805985205,0.,85.4775123120769));
#752=CARTESIAN_POINT('',(83.8521805985205,0.,177.011326999458));
#753=CARTESIAN_POINT('',(83.8521805985205,0.,-42.9886730005425));
#754=CARTESIAN_POINT('',(83.8521805985205,6.7,85.4775123120769));
#755=CARTESIAN_POINT('',(83.8521805985205,0.,85.4775123120769));
#756=CARTESIAN_POINT('',(83.8521805985205,6.7,177.011326999458));
#757=CARTESIAN_POINT('',(83.8521805985205,6.7,-42.9886730005425));
#758=CARTESIAN_POINT('',(83.8521805985205,0.,177.011326999458));
#759=CARTESIAN_POINT('Origin',(63.8521805985205,0.,177.011326999458));
#760=CARTESIAN_POINT('',(63.8521805985205,0.,177.011326999458));
#761=CARTESIAN_POINT('',(83.8521805985205,0.,177.011326999458));
#762=CARTESIAN_POINT('',(63.8521805985205,6.7,177.011326999458));
#763=CARTESIAN_POINT('',(83.8521805985205,6.7,177.011326999458));
#764=CARTESIAN_POINT('',(63.8521805985205,0.,177.011326999458));
#765=CARTESIAN_POINT('Origin',(63.8521805985205,0.,85.4775123120769));
#766=CARTESIAN_POINT('',(63.8521805985205,0.,85.4775123120769));
#767=CARTESIAN_POINT('',(63.8521805985205,0.,177.011326999458));
#768=CARTESIAN_POINT('',(63.8521805985205,6.7,85.4775123120769));
#769=CARTESIAN_POINT('',(63.8521805985205,6.7,177.011326999458));
#770=CARTESIAN_POINT('',(63.8521805985205,0.,85.4775123120769));
#771=CARTESIAN_POINT('Origin',(73.8521805985205,0.,67.0113269994575));
#772=CARTESIAN_POINT('',(63.8521805985205,0.,48.5451416868381));
#773=CARTESIAN_POINT('Origin',(73.8521805985205,0.,67.0113269994575));
#774=CARTESIAN_POINT('',(63.8521805985205,6.7,48.5451416868381));
#775=CARTESIAN_POINT('Origin',(73.8521805985205,6.7,67.0113269994575));
#776=CARTESIAN_POINT('',(63.8521805985205,0.,48.5451416868381));
#777=CARTESIAN_POINT('Origin',(63.8521805985205,0.,-42.9886730005425));
#778=CARTESIAN_POINT('',(63.8521805985205,0.,-42.9886730005425));
#779=CARTESIAN_POINT('',(63.8521805985205,0.,177.011326999458));
#780=CARTESIAN_POINT('',(63.8521805985205,6.7,-42.9886730005425));
#781=CARTESIAN_POINT('',(63.8521805985205,6.7,177.011326999458));
#782=CARTESIAN_POINT('',(63.8521805985205,0.,-42.9886730005425));
#783=CARTESIAN_POINT('Origin',(83.8521805985205,0.,-42.9886730005425));
#784=CARTESIAN_POINT('',(83.8521805985205,0.,-42.9886730005425));
#785=CARTESIAN_POINT('',(63.8521805985205,0.,-42.9886730005425));
#786=CARTESIAN_POINT('',(83.8521805985205,6.7,-42.9886730005425));
#787=CARTESIAN_POINT('',(63.8521805985205,6.7,-42.9886730005425));
#788=CARTESIAN_POINT('',(83.8521805985205,0.,-42.9886730005425));
#789=CARTESIAN_POINT('Origin',(83.8521805985205,0.,48.5451416868381));
#790=CARTESIAN_POINT('',(83.8521805985205,0.,48.5451416868381));
#791=CARTESIAN_POINT('',(83.8521805985205,0.,-42.9886730005425));
#792=CARTESIAN_POINT('',(83.8521805985205,6.7,48.5451416868381));
#793=CARTESIAN_POINT('',(83.8521805985205,6.7,-42.9886730005425));
#794=CARTESIAN_POINT('',(83.8521805985205,0.,48.5451416868381));
#795=CARTESIAN_POINT('Origin',(73.8521805985205,0.,67.0113269994575));
#796=CARTESIAN_POINT('Origin',(73.8521805985205,0.,67.0113269994575));
#797=CARTESIAN_POINT('Origin',(73.8521805985205,6.7,67.0113269994575));
#798=CARTESIAN_POINT('Origin',(73.8521805985205,6.7,67.0113269994575));
#799=CARTESIAN_POINT('Origin',(73.8521805985205,0.,67.0113269994575));
#800=UNCERTAINTY_MEASURE_WITH_UNIT(LENGTH_MEASURE(0.01),#804,
'DISTANCE_ACCURACY_VALUE',
'Maximum model space distance between geometric entities at asserted c
onnectivities');
#801=UNCERTAINTY_MEASURE_WITH_UNIT(LENGTH_MEASURE(0.01),#804,
'DISTANCE_ACCURACY_VALUE',
'Maximum model space distance between geometric entities at asserted c
onnectivities');
#802=(
GEOMETRIC_REPRESENTATION_CONTEXT(3)
GLOBAL_UNCERTAINTY_ASSIGNED_CONTEXT((#800))
GLOBAL_UNIT_ASSIGNED_CONTEXT((#804,#806,#807))
REPRESENTATION_CONTEXT('','3D')
);
#803=(
GEOMETRIC_REPRESENTATION_CONTEXT(3)
GLOBAL_UNCERTAINTY_ASSIGNED_CONTEXT((#801))
GLOBAL_UNIT_ASSIGNED_CONTEXT((#804,#806,#807))
REPRESENTATION_CONTEXT('','3D')
);
#804=(
LENGTH_UNIT()
NAMED_UNIT(*)
SI_UNIT(.MILLI.,.METRE.)
);
#805=(
LENGTH_UNIT()
NAMED_UNIT(*)
SI_UNIT($,.METRE.)
);
#806=(
NAMED_UNIT(*)
PLANE_ANGLE_UNIT()
SI_UNIT($,.RADIAN.)
);
#807=(
NAMED_UNIT(*)
SI_UNIT($,.STERADIAN.)
SOLID_ANGLE_UNIT()
);
#808=SHAPE_DEFINITION_REPRESENTATION(#809,#810);
#809=PRODUCT_DEFINITION_SHAPE('',$,#812);
#810=SHAPE_REPRESENTATION('',(#448),#802);
#811=PRODUCT_DEFINITION_CONTEXT('part definition',#816,'design');
#812=PRODUCT_DEFINITION('2026-07-05-17-09-31-092','Tube and Handle',#813,
#811);
#813=PRODUCT_DEFINITION_FORMATION('',$,#818);
#814=PRODUCT_RELATED_PRODUCT_CATEGORY('Tube and Handle',
'Tube and Handle',(#818));
#815=APPLICATION_PROTOCOL_DEFINITION('international standard',
'automotive_design',2009,#816);
#816=APPLICATION_CONTEXT(
'Core Data for Automotive Mechanical Design Process');
#817=PRODUCT_CONTEXT('part definition',#816,'mechanical');
#818=PRODUCT('2026-07-05-17-09-31-092','Tube and Handle',$,(#817));
#819=PRESENTATION_STYLE_ASSIGNMENT((#820));
#820=SURFACE_STYLE_USAGE(.BOTH.,#821);
#821=SURFACE_SIDE_STYLE('',(#822));
#822=SURFACE_STYLE_FILL_AREA(#823);
#823=FILL_AREA_STYLE('Steel - Satin',(#824));
#824=FILL_AREA_STYLE_COLOUR('Steel - Satin',#825);
#825=COLOUR_RGB('Steel - Satin',0.627450980392157,0.627450980392157,0.627450980392157);
ENDSEC;
END-ISO-10303-21;
