ISO-10303-21;
HEADER;
/* Generated by software containing ST-Developer
 * from STEP Tools, Inc. (www.steptools.com) 
 */

FILE_DESCRIPTION(
/* description */ (''),
/* implementation_level */ '2;1');

FILE_NAME(
/* name */ 'Hoop.step',
/* time_stamp */ '2026-08-30T10:00:28+12:00',
/* author */ (''),
/* organization */ (''),
/* preprocessor_version */ 'ST-DEVELOPER v20.1',
/* originating_system */ 'Autodesk Translation Framework v15.8.0.0',
/* authorisation */ '');

FILE_SCHEMA (('AUTOMOTIVE_DESIGN { 1 0 10303 214 3 1 1 }'));
ENDSEC;

DATA;
#10=MECHANICAL_DESIGN_GEOMETRIC_PRESENTATION_REPRESENTATION('',(#13),#822);
#11=SHAPE_REPRESENTATION_RELATIONSHIP('SRR','None',#829,#12);
#12=ADVANCED_BREP_SHAPE_REPRESENTATION('',(#14),#821);
#13=STYLED_ITEM('',(#838),#14);
#14=MANIFOLD_SOLID_BREP('Body5',#490);
#15=FACE_BOUND('',#78,.T.);
#16=FACE_BOUND('',#89,.T.);
#17=FACE_BOUND('',#90,.T.);
#18=FACE_BOUND('',#91,.T.);
#19=FACE_BOUND('',#92,.T.);
#20=FACE_BOUND('',#96,.T.);
#21=FACE_BOUND('',#99,.T.);
#22=FACE_BOUND('',#106,.T.);
#23=PLANE('',#507);
#24=PLANE('',#511);
#25=PLANE('',#518);
#26=PLANE('',#522);
#27=PLANE('',#523);
#28=PLANE('',#524);
#29=PLANE('',#525);
#30=PLANE('',#526);
#31=PLANE('',#527);
#32=PLANE('',#530);
#33=PLANE('',#531);
#34=PLANE('',#532);
#35=PLANE('',#533);
#36=PLANE('',#534);
#37=PLANE('',#535);
#38=PLANE('',#536);
#39=PLANE('',#541);
#40=PLANE('',#542);
#41=PLANE('',#543);
#42=PLANE('',#544);
#43=PLANE('',#545);
#44=PLANE('',#546);
#45=FACE_OUTER_BOUND('',#74,.T.);
#46=FACE_OUTER_BOUND('',#75,.T.);
#47=FACE_OUTER_BOUND('',#76,.T.);
#48=FACE_OUTER_BOUND('',#77,.T.);
#49=FACE_OUTER_BOUND('',#79,.T.);
#50=FACE_OUTER_BOUND('',#80,.T.);
#51=FACE_OUTER_BOUND('',#81,.T.);
#52=FACE_OUTER_BOUND('',#82,.T.);
#53=FACE_OUTER_BOUND('',#83,.T.);
#54=FACE_OUTER_BOUND('',#84,.T.);
#55=FACE_OUTER_BOUND('',#85,.T.);
#56=FACE_OUTER_BOUND('',#86,.T.);
#57=FACE_OUTER_BOUND('',#87,.T.);
#58=FACE_OUTER_BOUND('',#88,.T.);
#59=FACE_OUTER_BOUND('',#93,.T.);
#60=FACE_OUTER_BOUND('',#94,.T.);
#61=FACE_OUTER_BOUND('',#95,.T.);
#62=FACE_OUTER_BOUND('',#97,.T.);
#63=FACE_OUTER_BOUND('',#98,.T.);
#64=FACE_OUTER_BOUND('',#100,.T.);
#65=FACE_OUTER_BOUND('',#101,.T.);
#66=FACE_OUTER_BOUND('',#102,.T.);
#67=FACE_OUTER_BOUND('',#103,.T.);
#68=FACE_OUTER_BOUND('',#104,.T.);
#69=FACE_OUTER_BOUND('',#105,.T.);
#70=FACE_OUTER_BOUND('',#107,.T.);
#71=FACE_OUTER_BOUND('',#108,.T.);
#72=FACE_OUTER_BOUND('',#109,.T.);
#73=FACE_OUTER_BOUND('',#110,.T.);
#74=EDGE_LOOP('',(#328,#329,#330,#331));
#75=EDGE_LOOP('',(#332));
#76=EDGE_LOOP('',(#333,#334,#335,#336));
#77=EDGE_LOOP('',(#337));
#78=EDGE_LOOP('',(#338));
#79=EDGE_LOOP('',(#339,#340,#341,#342));
#80=EDGE_LOOP('',(#343,#344,#345,#346));
#81=EDGE_LOOP('',(#347));
#82=EDGE_LOOP('',(#348,#349,#350,#351));
#83=EDGE_LOOP('',(#352));
#84=EDGE_LOOP('',(#353,#354,#355,#356));
#85=EDGE_LOOP('',(#357,#358,#359,#360));
#86=EDGE_LOOP('',(#361,#362,#363,#364));
#87=EDGE_LOOP('',(#365,#366,#367,#368));
#88=EDGE_LOOP('',(#369,#370,#371,#372,#373,#374));
#89=EDGE_LOOP('',(#375));
#90=EDGE_LOOP('',(#376));
#91=EDGE_LOOP('',(#377,#378,#379,#380));
#92=EDGE_LOOP('',(#381,#382,#383,#384));
#93=EDGE_LOOP('',(#385,#386,#387,#388));
#94=EDGE_LOOP('',(#389,#390,#391,#392));
#95=EDGE_LOOP('',(#393,#394,#395,#396));
#96=EDGE_LOOP('',(#397));
#97=EDGE_LOOP('',(#398,#399,#400,#401));
#98=EDGE_LOOP('',(#402,#403,#404,#405));
#99=EDGE_LOOP('',(#406));
#100=EDGE_LOOP('',(#407,#408,#409,#410));
#101=EDGE_LOOP('',(#411,#412,#413,#414));
#102=EDGE_LOOP('',(#415,#416,#417,#418));
#103=EDGE_LOOP('',(#419,#420,#421,#422));
#104=EDGE_LOOP('',(#423,#424,#425,#426));
#105=EDGE_LOOP('',(#427,#428,#429,#430,#431,#432));
#106=EDGE_LOOP('',(#433));
#107=EDGE_LOOP('',(#434,#435,#436,#437));
#108=EDGE_LOOP('',(#438,#439,#440,#441,#442,#443));
#109=EDGE_LOOP('',(#444,#445,#446,#447,#448,#449));
#110=EDGE_LOOP('',(#450,#451,#452,#453));
#111=LINE('',#689,#160);
#112=LINE('',#696,#161);
#113=LINE('',#703,#162);
#114=LINE('',#709,#163);
#115=LINE('',#716,#164);
#116=LINE('',#722,#165);
#117=LINE('',#724,#166);
#118=LINE('',#726,#167);
#119=LINE('',#727,#168);
#120=LINE('',#731,#169);
#121=LINE('',#733,#170);
#122=LINE('',#735,#171);
#123=LINE('',#736,#172);
#124=LINE('',#739,#173);
#125=LINE('',#741,#174);
#126=LINE('',#742,#175);
#127=LINE('',#745,#176);
#128=LINE('',#746,#177);
#129=LINE('',#750,#178);
#130=LINE('',#752,#179);
#131=LINE('',#754,#180);
#132=LINE('',#758,#181);
#133=LINE('',#761,#182);
#134=LINE('',#763,#183);
#135=LINE('',#764,#184);
#136=LINE('',#766,#185);
#137=LINE('',#767,#186);
#138=LINE('',#770,#187);
#139=LINE('',#772,#188);
#140=LINE('',#773,#189);
#141=LINE('',#775,#190);
#142=LINE('',#779,#191);
#143=LINE('',#781,#192);
#144=LINE('',#782,#193);
#145=LINE('',#784,#194);
#146=LINE('',#786,#195);
#147=LINE('',#790,#196);
#148=LINE('',#793,#197);
#149=LINE('',#796,#198);
#150=LINE('',#799,#199);
#151=LINE('',#801,#200);
#152=LINE('',#804,#201);
#153=LINE('',#806,#202);
#154=LINE('',#807,#203);
#155=LINE('',#810,#204);
#156=LINE('',#812,#205);
#157=LINE('',#813,#206);
#158=LINE('',#815,#207);
#159=LINE('',#817,#208);
#160=VECTOR('',#553,0.2425);
#161=VECTOR('',#562,0.5);
#162=VECTOR('',#571,2.25);
#163=VECTOR('',#578,0.12);
#164=VECTOR('',#587,0.12);
#165=VECTOR('',#594,1.);
#166=VECTOR('',#595,1.);
#167=VECTOR('',#596,1.);
#168=VECTOR('',#597,1.);
#169=VECTOR('',#600,1.);
#170=VECTOR('',#601,1.);
#171=VECTOR('',#602,1.);
#172=VECTOR('',#603,1.);
#173=VECTOR('',#606,1.);
#174=VECTOR('',#607,1.);
#175=VECTOR('',#608,1.);
#176=VECTOR('',#611,1.);
#177=VECTOR('',#612,1.);
#178=VECTOR('',#615,1.);
#179=VECTOR('',#616,1.);
#180=VECTOR('',#617,1.);
#181=VECTOR('',#620,1.);
#182=VECTOR('',#623,1.);
#183=VECTOR('',#624,1.);
#184=VECTOR('',#625,1.);
#185=VECTOR('',#626,1.);
#186=VECTOR('',#627,1.);
#187=VECTOR('',#630,1.);
#188=VECTOR('',#631,1.);
#189=VECTOR('',#632,1.);
#190=VECTOR('',#635,1.);
#191=VECTOR('',#640,1.);
#192=VECTOR('',#641,1.);
#193=VECTOR('',#642,1.);
#194=VECTOR('',#645,1.);
#195=VECTOR('',#648,1.);
#196=VECTOR('',#653,1.);
#197=VECTOR('',#656,1.);
#198=VECTOR('',#659,1.);
#199=VECTOR('',#662,1.);
#200=VECTOR('',#665,1.);
#201=VECTOR('',#668,1.);
#202=VECTOR('',#669,1.);
#203=VECTOR('',#670,1.);
#204=VECTOR('',#673,1.);
#205=VECTOR('',#674,1.);
#206=VECTOR('',#675,1.);
#207=VECTOR('',#678,1.);
#208=VECTOR('',#681,1.);
#209=CIRCLE('',#505,0.2425);
#210=CIRCLE('',#506,0.2425);
#211=CIRCLE('',#509,0.5);
#212=CIRCLE('',#510,0.5);
#213=CIRCLE('',#513,2.25);
#214=CIRCLE('',#514,2.25);
#215=CIRCLE('',#516,0.12);
#216=CIRCLE('',#517,0.12);
#217=CIRCLE('',#520,0.12);
#218=CIRCLE('',#521,0.12);
#219=CIRCLE('',#528,0.999999999999999);
#220=CIRCLE('',#529,0.999999999999999);
#221=CIRCLE('',#538,0.999999999999999);
#222=CIRCLE('',#540,0.999999999999999);
#223=VERTEX_POINT('',#686);
#224=VERTEX_POINT('',#688);
#225=VERTEX_POINT('',#693);
#226=VERTEX_POINT('',#695);
#227=VERTEX_POINT('',#700);
#228=VERTEX_POINT('',#702);
#229=VERTEX_POINT('',#706);
#230=VERTEX_POINT('',#708);
#231=VERTEX_POINT('',#713);
#232=VERTEX_POINT('',#715);
#233=VERTEX_POINT('',#720);
#234=VERTEX_POINT('',#721);
#235=VERTEX_POINT('',#723);
#236=VERTEX_POINT('',#725);
#237=VERTEX_POINT('',#729);
#238=VERTEX_POINT('',#730);
#239=VERTEX_POINT('',#732);
#240=VERTEX_POINT('',#734);
#241=VERTEX_POINT('',#738);
#242=VERTEX_POINT('',#740);
#243=VERTEX_POINT('',#744);
#244=VERTEX_POINT('',#748);
#245=VERTEX_POINT('',#749);
#246=VERTEX_POINT('',#751);
#247=VERTEX_POINT('',#753);
#248=VERTEX_POINT('',#755);
#249=VERTEX_POINT('',#757);
#250=VERTEX_POINT('',#760);
#251=VERTEX_POINT('',#762);
#252=VERTEX_POINT('',#765);
#253=VERTEX_POINT('',#769);
#254=VERTEX_POINT('',#771);
#255=VERTEX_POINT('',#778);
#256=VERTEX_POINT('',#780);
#257=VERTEX_POINT('',#789);
#258=VERTEX_POINT('',#791);
#259=VERTEX_POINT('',#795);
#260=VERTEX_POINT('',#797);
#261=VERTEX_POINT('',#803);
#262=VERTEX_POINT('',#805);
#263=VERTEX_POINT('',#809);
#264=VERTEX_POINT('',#811);
#265=EDGE_CURVE('',#223,#223,#209,.T.);
#266=EDGE_CURVE('',#223,#224,#111,.T.);
#267=EDGE_CURVE('',#224,#224,#210,.T.);
#268=EDGE_CURVE('',#225,#225,#211,.T.);
#269=EDGE_CURVE('',#225,#226,#112,.T.);
#270=EDGE_CURVE('',#226,#226,#212,.T.);
#271=EDGE_CURVE('',#227,#227,#213,.T.);
#272=EDGE_CURVE('',#227,#228,#113,.T.);
#273=EDGE_CURVE('',#228,#228,#214,.T.);
#274=EDGE_CURVE('',#229,#229,#215,.T.);
#275=EDGE_CURVE('',#229,#230,#114,.T.);
#276=EDGE_CURVE('',#230,#230,#216,.T.);
#277=EDGE_CURVE('',#231,#231,#217,.T.);
#278=EDGE_CURVE('',#231,#232,#115,.T.);
#279=EDGE_CURVE('',#232,#232,#218,.T.);
#280=EDGE_CURVE('',#233,#234,#116,.T.);
#281=EDGE_CURVE('',#233,#235,#117,.T.);
#282=EDGE_CURVE('',#235,#236,#118,.T.);
#283=EDGE_CURVE('',#236,#234,#119,.T.);
#284=EDGE_CURVE('',#237,#238,#120,.T.);
#285=EDGE_CURVE('',#237,#239,#121,.T.);
#286=EDGE_CURVE('',#240,#239,#122,.T.);
#287=EDGE_CURVE('',#240,#238,#123,.T.);
#288=EDGE_CURVE('',#240,#241,#124,.T.);
#289=EDGE_CURVE('',#241,#242,#125,.T.);
#290=EDGE_CURVE('',#238,#242,#126,.T.);
#291=EDGE_CURVE('',#239,#243,#127,.T.);
#292=EDGE_CURVE('',#243,#241,#128,.T.);
#293=EDGE_CURVE('',#244,#245,#129,.T.);
#294=EDGE_CURVE('',#246,#245,#130,.T.);
#295=EDGE_CURVE('',#247,#246,#131,.T.);
#296=EDGE_CURVE('',#248,#247,#219,.T.);
#297=EDGE_CURVE('',#249,#248,#132,.T.);
#298=EDGE_CURVE('',#244,#249,#220,.T.);
#299=EDGE_CURVE('',#234,#250,#133,.T.);
#300=EDGE_CURVE('',#250,#251,#134,.T.);
#301=EDGE_CURVE('',#251,#233,#135,.T.);
#302=EDGE_CURVE('',#242,#252,#136,.T.);
#303=EDGE_CURVE('',#252,#237,#137,.T.);
#304=EDGE_CURVE('',#245,#253,#138,.T.);
#305=EDGE_CURVE('',#253,#254,#139,.T.);
#306=EDGE_CURVE('',#254,#246,#140,.T.);
#307=EDGE_CURVE('',#252,#243,#141,.T.);
#308=EDGE_CURVE('',#250,#255,#142,.T.);
#309=EDGE_CURVE('',#256,#255,#143,.T.);
#310=EDGE_CURVE('',#251,#256,#144,.T.);
#311=EDGE_CURVE('',#256,#235,#145,.T.);
#312=EDGE_CURVE('',#255,#236,#146,.T.);
#313=EDGE_CURVE('',#249,#257,#147,.T.);
#314=EDGE_CURVE('',#258,#257,#221,.T.);
#315=EDGE_CURVE('',#244,#258,#148,.T.);
#316=EDGE_CURVE('',#247,#259,#149,.T.);
#317=EDGE_CURVE('',#260,#259,#222,.T.);
#318=EDGE_CURVE('',#248,#260,#150,.T.);
#319=EDGE_CURVE('',#257,#260,#151,.T.);
#320=EDGE_CURVE('',#259,#261,#152,.T.);
#321=EDGE_CURVE('',#262,#261,#153,.T.);
#322=EDGE_CURVE('',#262,#258,#154,.T.);
#323=EDGE_CURVE('',#261,#263,#155,.T.);
#324=EDGE_CURVE('',#264,#263,#156,.T.);
#325=EDGE_CURVE('',#262,#264,#157,.T.);
#326=EDGE_CURVE('',#263,#254,#158,.T.);
#327=EDGE_CURVE('',#264,#253,#159,.T.);
#328=ORIENTED_EDGE('',*,*,#265,.F.);
#329=ORIENTED_EDGE('',*,*,#266,.T.);
#330=ORIENTED_EDGE('',*,*,#267,.T.);
#331=ORIENTED_EDGE('',*,*,#266,.F.);
#332=ORIENTED_EDGE('',*,*,#267,.F.);
#333=ORIENTED_EDGE('',*,*,#268,.F.);
#334=ORIENTED_EDGE('',*,*,#269,.T.);
#335=ORIENTED_EDGE('',*,*,#270,.F.);
#336=ORIENTED_EDGE('',*,*,#269,.F.);
#337=ORIENTED_EDGE('',*,*,#268,.T.);
#338=ORIENTED_EDGE('',*,*,#265,.T.);
#339=ORIENTED_EDGE('',*,*,#271,.F.);
#340=ORIENTED_EDGE('',*,*,#272,.T.);
#341=ORIENTED_EDGE('',*,*,#273,.F.);
#342=ORIENTED_EDGE('',*,*,#272,.F.);
#343=ORIENTED_EDGE('',*,*,#274,.F.);
#344=ORIENTED_EDGE('',*,*,#275,.T.);
#345=ORIENTED_EDGE('',*,*,#276,.F.);
#346=ORIENTED_EDGE('',*,*,#275,.F.);
#347=ORIENTED_EDGE('',*,*,#274,.T.);
#348=ORIENTED_EDGE('',*,*,#277,.F.);
#349=ORIENTED_EDGE('',*,*,#278,.T.);
#350=ORIENTED_EDGE('',*,*,#279,.F.);
#351=ORIENTED_EDGE('',*,*,#278,.F.);
#352=ORIENTED_EDGE('',*,*,#277,.T.);
#353=ORIENTED_EDGE('',*,*,#280,.F.);
#354=ORIENTED_EDGE('',*,*,#281,.T.);
#355=ORIENTED_EDGE('',*,*,#282,.T.);
#356=ORIENTED_EDGE('',*,*,#283,.T.);
#357=ORIENTED_EDGE('',*,*,#284,.F.);
#358=ORIENTED_EDGE('',*,*,#285,.T.);
#359=ORIENTED_EDGE('',*,*,#286,.F.);
#360=ORIENTED_EDGE('',*,*,#287,.T.);
#361=ORIENTED_EDGE('',*,*,#287,.F.);
#362=ORIENTED_EDGE('',*,*,#288,.T.);
#363=ORIENTED_EDGE('',*,*,#289,.T.);
#364=ORIENTED_EDGE('',*,*,#290,.F.);
#365=ORIENTED_EDGE('',*,*,#286,.T.);
#366=ORIENTED_EDGE('',*,*,#291,.T.);
#367=ORIENTED_EDGE('',*,*,#292,.T.);
#368=ORIENTED_EDGE('',*,*,#288,.F.);
#369=ORIENTED_EDGE('',*,*,#293,.T.);
#370=ORIENTED_EDGE('',*,*,#294,.F.);
#371=ORIENTED_EDGE('',*,*,#295,.F.);
#372=ORIENTED_EDGE('',*,*,#296,.F.);
#373=ORIENTED_EDGE('',*,*,#297,.F.);
#374=ORIENTED_EDGE('',*,*,#298,.F.);
#375=ORIENTED_EDGE('',*,*,#270,.T.);
#376=ORIENTED_EDGE('',*,*,#271,.T.);
#377=ORIENTED_EDGE('',*,*,#299,.T.);
#378=ORIENTED_EDGE('',*,*,#300,.T.);
#379=ORIENTED_EDGE('',*,*,#301,.T.);
#380=ORIENTED_EDGE('',*,*,#280,.T.);
#381=ORIENTED_EDGE('',*,*,#284,.T.);
#382=ORIENTED_EDGE('',*,*,#290,.T.);
#383=ORIENTED_EDGE('',*,*,#302,.T.);
#384=ORIENTED_EDGE('',*,*,#303,.T.);
#385=ORIENTED_EDGE('',*,*,#294,.T.);
#386=ORIENTED_EDGE('',*,*,#304,.T.);
#387=ORIENTED_EDGE('',*,*,#305,.T.);
#388=ORIENTED_EDGE('',*,*,#306,.T.);
#389=ORIENTED_EDGE('',*,*,#303,.F.);
#390=ORIENTED_EDGE('',*,*,#307,.T.);
#391=ORIENTED_EDGE('',*,*,#291,.F.);
#392=ORIENTED_EDGE('',*,*,#285,.F.);
#393=ORIENTED_EDGE('',*,*,#302,.F.);
#394=ORIENTED_EDGE('',*,*,#289,.F.);
#395=ORIENTED_EDGE('',*,*,#292,.F.);
#396=ORIENTED_EDGE('',*,*,#307,.F.);
#397=ORIENTED_EDGE('',*,*,#276,.T.);
#398=ORIENTED_EDGE('',*,*,#300,.F.);
#399=ORIENTED_EDGE('',*,*,#308,.T.);
#400=ORIENTED_EDGE('',*,*,#309,.F.);
#401=ORIENTED_EDGE('',*,*,#310,.F.);
#402=ORIENTED_EDGE('',*,*,#301,.F.);
#403=ORIENTED_EDGE('',*,*,#310,.T.);
#404=ORIENTED_EDGE('',*,*,#311,.T.);
#405=ORIENTED_EDGE('',*,*,#281,.F.);
#406=ORIENTED_EDGE('',*,*,#279,.T.);
#407=ORIENTED_EDGE('',*,*,#299,.F.);
#408=ORIENTED_EDGE('',*,*,#283,.F.);
#409=ORIENTED_EDGE('',*,*,#312,.F.);
#410=ORIENTED_EDGE('',*,*,#308,.F.);
#411=ORIENTED_EDGE('',*,*,#312,.T.);
#412=ORIENTED_EDGE('',*,*,#282,.F.);
#413=ORIENTED_EDGE('',*,*,#311,.F.);
#414=ORIENTED_EDGE('',*,*,#309,.T.);
#415=ORIENTED_EDGE('',*,*,#298,.T.);
#416=ORIENTED_EDGE('',*,*,#313,.T.);
#417=ORIENTED_EDGE('',*,*,#314,.F.);
#418=ORIENTED_EDGE('',*,*,#315,.F.);
#419=ORIENTED_EDGE('',*,*,#296,.T.);
#420=ORIENTED_EDGE('',*,*,#316,.T.);
#421=ORIENTED_EDGE('',*,*,#317,.F.);
#422=ORIENTED_EDGE('',*,*,#318,.F.);
#423=ORIENTED_EDGE('',*,*,#297,.T.);
#424=ORIENTED_EDGE('',*,*,#318,.T.);
#425=ORIENTED_EDGE('',*,*,#319,.F.);
#426=ORIENTED_EDGE('',*,*,#313,.F.);
#427=ORIENTED_EDGE('',*,*,#319,.T.);
#428=ORIENTED_EDGE('',*,*,#317,.T.);
#429=ORIENTED_EDGE('',*,*,#320,.T.);
#430=ORIENTED_EDGE('',*,*,#321,.F.);
#431=ORIENTED_EDGE('',*,*,#322,.T.);
#432=ORIENTED_EDGE('',*,*,#314,.T.);
#433=ORIENTED_EDGE('',*,*,#273,.T.);
#434=ORIENTED_EDGE('',*,*,#321,.T.);
#435=ORIENTED_EDGE('',*,*,#323,.T.);
#436=ORIENTED_EDGE('',*,*,#324,.F.);
#437=ORIENTED_EDGE('',*,*,#325,.F.);
#438=ORIENTED_EDGE('',*,*,#295,.T.);
#439=ORIENTED_EDGE('',*,*,#306,.F.);
#440=ORIENTED_EDGE('',*,*,#326,.F.);
#441=ORIENTED_EDGE('',*,*,#323,.F.);
#442=ORIENTED_EDGE('',*,*,#320,.F.);
#443=ORIENTED_EDGE('',*,*,#316,.F.);
#444=ORIENTED_EDGE('',*,*,#293,.F.);
#445=ORIENTED_EDGE('',*,*,#315,.T.);
#446=ORIENTED_EDGE('',*,*,#322,.F.);
#447=ORIENTED_EDGE('',*,*,#325,.T.);
#448=ORIENTED_EDGE('',*,*,#327,.T.);
#449=ORIENTED_EDGE('',*,*,#304,.F.);
#450=ORIENTED_EDGE('',*,*,#327,.F.);
#451=ORIENTED_EDGE('',*,*,#324,.T.);
#452=ORIENTED_EDGE('',*,*,#326,.T.);
#453=ORIENTED_EDGE('',*,*,#305,.F.);
#454=CYLINDRICAL_SURFACE('',#504,0.2425);
#455=CYLINDRICAL_SURFACE('',#508,0.5);
#456=CYLINDRICAL_SURFACE('',#512,2.25);
#457=CYLINDRICAL_SURFACE('',#515,0.12);
#458=CYLINDRICAL_SURFACE('',#519,0.12);
#459=CYLINDRICAL_SURFACE('',#537,0.999999999999999);
#460=CYLINDRICAL_SURFACE('',#539,0.999999999999999);
#461=ADVANCED_FACE('',(#45),#454,.F.);
#462=ADVANCED_FACE('',(#46),#23,.F.);
#463=ADVANCED_FACE('',(#47),#455,.T.);
#464=ADVANCED_FACE('',(#48,#15),#24,.T.);
#465=ADVANCED_FACE('',(#49),#456,.F.);
#466=ADVANCED_FACE('',(#50),#457,.T.);
#467=ADVANCED_FACE('',(#51),#25,.T.);
#468=ADVANCED_FACE('',(#52),#458,.T.);
#469=ADVANCED_FACE('',(#53),#26,.T.);
#470=ADVANCED_FACE('',(#54),#27,.T.);
#471=ADVANCED_FACE('',(#55),#28,.T.);
#472=ADVANCED_FACE('',(#56),#29,.T.);
#473=ADVANCED_FACE('',(#57),#30,.T.);
#474=ADVANCED_FACE('',(#58,#16,#17,#18,#19),#31,.F.);
#475=ADVANCED_FACE('',(#59),#32,.T.);
#476=ADVANCED_FACE('',(#60),#33,.T.);
#477=ADVANCED_FACE('',(#61,#20),#34,.T.);
#478=ADVANCED_FACE('',(#62),#35,.T.);
#479=ADVANCED_FACE('',(#63,#21),#36,.T.);
#480=ADVANCED_FACE('',(#64),#37,.T.);
#481=ADVANCED_FACE('',(#65),#38,.T.);
#482=ADVANCED_FACE('',(#66),#459,.T.);
#483=ADVANCED_FACE('',(#67),#460,.T.);
#484=ADVANCED_FACE('',(#68),#39,.T.);
#485=ADVANCED_FACE('',(#69,#22),#40,.T.);
#486=ADVANCED_FACE('',(#70),#41,.T.);
#487=ADVANCED_FACE('',(#71),#42,.T.);
#488=ADVANCED_FACE('',(#72),#43,.T.);
#489=ADVANCED_FACE('',(#73),#44,.T.);
#490=CLOSED_SHELL('',(#461,#462,#463,#464,#465,#466,#467,#468,#469,#470,
#471,#472,#473,#474,#475,#476,#477,#478,#479,#480,#481,#482,#483,#484,#485,
#486,#487,#488,#489));
#491=DERIVED_UNIT_ELEMENT(#493,1.);
#492=DERIVED_UNIT_ELEMENT(#824,-3.);
#493=(
MASS_UNIT()
NAMED_UNIT(*)
SI_UNIT(.KILO.,.GRAM.)
);
#494=DERIVED_UNIT((#491,#492));
#495=MEASURE_REPRESENTATION_ITEM('density measure',
POSITIVE_RATIO_MEASURE(7850.),#494);
#496=PROPERTY_DEFINITION_REPRESENTATION(#501,#498);
#497=PROPERTY_DEFINITION_REPRESENTATION(#502,#499);
#498=REPRESENTATION('material name',(#500),#821);
#499=REPRESENTATION('density',(#495),#821);
#500=DESCRIPTIVE_REPRESENTATION_ITEM('Steel','Steel');
#501=PROPERTY_DEFINITION('material property','material name',#831);
#502=PROPERTY_DEFINITION('material property','density of part',#831);
#503=AXIS2_PLACEMENT_3D('',#684,#547,#548);
#504=AXIS2_PLACEMENT_3D('',#685,#549,#550);
#505=AXIS2_PLACEMENT_3D('',#687,#551,#552);
#506=AXIS2_PLACEMENT_3D('',#690,#554,#555);
#507=AXIS2_PLACEMENT_3D('',#691,#556,#557);
#508=AXIS2_PLACEMENT_3D('',#692,#558,#559);
#509=AXIS2_PLACEMENT_3D('',#694,#560,#561);
#510=AXIS2_PLACEMENT_3D('',#697,#563,#564);
#511=AXIS2_PLACEMENT_3D('',#698,#565,#566);
#512=AXIS2_PLACEMENT_3D('',#699,#567,#568);
#513=AXIS2_PLACEMENT_3D('',#701,#569,#570);
#514=AXIS2_PLACEMENT_3D('',#704,#572,#573);
#515=AXIS2_PLACEMENT_3D('',#705,#574,#575);
#516=AXIS2_PLACEMENT_3D('',#707,#576,#577);
#517=AXIS2_PLACEMENT_3D('',#710,#579,#580);
#518=AXIS2_PLACEMENT_3D('',#711,#581,#582);
#519=AXIS2_PLACEMENT_3D('',#712,#583,#584);
#520=AXIS2_PLACEMENT_3D('',#714,#585,#586);
#521=AXIS2_PLACEMENT_3D('',#717,#588,#589);
#522=AXIS2_PLACEMENT_3D('',#718,#590,#591);
#523=AXIS2_PLACEMENT_3D('',#719,#592,#593);
#524=AXIS2_PLACEMENT_3D('',#728,#598,#599);
#525=AXIS2_PLACEMENT_3D('',#737,#604,#605);
#526=AXIS2_PLACEMENT_3D('',#743,#609,#610);
#527=AXIS2_PLACEMENT_3D('',#747,#613,#614);
#528=AXIS2_PLACEMENT_3D('',#756,#618,#619);
#529=AXIS2_PLACEMENT_3D('',#759,#621,#622);
#530=AXIS2_PLACEMENT_3D('',#768,#628,#629);
#531=AXIS2_PLACEMENT_3D('',#774,#633,#634);
#532=AXIS2_PLACEMENT_3D('',#776,#636,#637);
#533=AXIS2_PLACEMENT_3D('',#777,#638,#639);
#534=AXIS2_PLACEMENT_3D('',#783,#643,#644);
#535=AXIS2_PLACEMENT_3D('',#785,#646,#647);
#536=AXIS2_PLACEMENT_3D('',#787,#649,#650);
#537=AXIS2_PLACEMENT_3D('',#788,#651,#652);
#538=AXIS2_PLACEMENT_3D('',#792,#654,#655);
#539=AXIS2_PLACEMENT_3D('',#794,#657,#658);
#540=AXIS2_PLACEMENT_3D('',#798,#660,#661);
#541=AXIS2_PLACEMENT_3D('',#800,#663,#664);
#542=AXIS2_PLACEMENT_3D('',#802,#666,#667);
#543=AXIS2_PLACEMENT_3D('',#808,#671,#672);
#544=AXIS2_PLACEMENT_3D('',#814,#676,#677);
#545=AXIS2_PLACEMENT_3D('',#816,#679,#680);
#546=AXIS2_PLACEMENT_3D('',#818,#682,#683);
#547=DIRECTION('axis',(0.,0.,1.));
#548=DIRECTION('refdir',(1.,0.,0.));
#549=DIRECTION('center_axis',(0.,1.,0.));
#550=DIRECTION('ref_axis',(0.,0.,-1.));
#551=DIRECTION('center_axis',(0.,1.,0.));
#552=DIRECTION('ref_axis',(0.,0.,-1.));
#553=DIRECTION('',(0.,1.,0.));
#554=DIRECTION('center_axis',(0.,1.,0.));
#555=DIRECTION('ref_axis',(0.,0.,-1.));
#556=DIRECTION('center_axis',(0.,1.,0.));
#557=DIRECTION('ref_axis',(0.,0.,-1.));
#558=DIRECTION('center_axis',(0.,-1.,0.));
#559=DIRECTION('ref_axis',(1.,0.,0.));
#560=DIRECTION('center_axis',(0.,-1.,0.));
#561=DIRECTION('ref_axis',(1.,0.,0.));
#562=DIRECTION('',(0.,1.,0.));
#563=DIRECTION('center_axis',(0.,1.,0.));
#564=DIRECTION('ref_axis',(1.,0.,0.));
#565=DIRECTION('center_axis',(0.,-1.,0.));
#566=DIRECTION('ref_axis',(1.,0.,0.));
#567=DIRECTION('center_axis',(0.,1.,0.));
#568=DIRECTION('ref_axis',(1.,0.,0.));
#569=DIRECTION('center_axis',(0.,1.,0.));
#570=DIRECTION('ref_axis',(1.,0.,0.));
#571=DIRECTION('',(0.,1.,0.));
#572=DIRECTION('center_axis',(0.,-1.,0.));
#573=DIRECTION('ref_axis',(1.,0.,0.));
#574=DIRECTION('center_axis',(0.707106781186549,0.,0.707106781186546));
#575=DIRECTION('ref_axis',(0.707106781186546,0.,-0.707106781186549));
#576=DIRECTION('center_axis',(0.707106781186549,0.,0.707106781186546));
#577=DIRECTION('ref_axis',(0.707106781186546,0.,-0.707106781186549));
#578=DIRECTION('',(-0.707106781186549,0.,-0.707106781186546));
#579=DIRECTION('center_axis',(-0.707106781186549,0.,-0.707106781186546));
#580=DIRECTION('ref_axis',(0.707106781186546,0.,-0.707106781186549));
#581=DIRECTION('center_axis',(0.707106781186549,0.,0.707106781186546));
#582=DIRECTION('ref_axis',(0.707106781186546,0.,-0.707106781186549));
#583=DIRECTION('center_axis',(-0.707106781186547,0.,-0.707106781186548));
#584=DIRECTION('ref_axis',(-0.707106781186548,0.,0.707106781186548));
#585=DIRECTION('center_axis',(-0.707106781186548,0.,-0.707106781186548));
#586=DIRECTION('ref_axis',(-0.707106781186548,0.,0.707106781186548));
#587=DIRECTION('',(0.707106781186547,0.,0.707106781186548));
#588=DIRECTION('center_axis',(0.707106781186548,0.,0.707106781186548));
#589=DIRECTION('ref_axis',(-0.707106781186548,0.,0.707106781186548));
#590=DIRECTION('center_axis',(-0.707106781186548,0.,-0.707106781186548));
#591=DIRECTION('ref_axis',(-0.707106781186548,0.,0.707106781186548));
#592=DIRECTION('center_axis',(-0.707106781186546,0.,0.707106781186549));
#593=DIRECTION('ref_axis',(0.707106781186549,0.,0.707106781186546));
#594=DIRECTION('',(0.707106781186549,0.,0.707106781186546));
#595=DIRECTION('',(0.,-1.,0.));
#596=DIRECTION('',(0.707106781186548,0.,0.707106781186548));
#597=DIRECTION('',(0.,1.,0.));
#598=DIRECTION('center_axis',(-0.707489582531027,0.,-0.706723772495359));
#599=DIRECTION('ref_axis',(0.706723772495359,0.,-0.707489582531027));
#600=DIRECTION('',(-0.706723772495359,0.,0.707489582531027));
#601=DIRECTION('',(0.,-1.,0.));
#602=DIRECTION('',(0.706723772495359,0.,-0.707489582531027));
#603=DIRECTION('',(0.,1.,0.));
#604=DIRECTION('center_axis',(-0.707106781186548,0.,0.707106781186548));
#605=DIRECTION('ref_axis',(0.707106781186548,0.,0.707106781186548));
#606=DIRECTION('',(0.707106781186548,0.,0.707106781186548));
#607=DIRECTION('',(0.,1.,0.));
#608=DIRECTION('',(0.707106781186548,0.,0.707106781186548));
#609=DIRECTION('center_axis',(0.,-1.,0.));
#610=DIRECTION('ref_axis',(0.,0.,-1.));
#611=DIRECTION('',(0.707106781186548,0.,0.707106781186548));
#612=DIRECTION('',(-0.707106781186546,0.,0.707106781186549));
#613=DIRECTION('center_axis',(0.,1.,0.));
#614=DIRECTION('ref_axis',(1.,0.,0.));
#615=DIRECTION('',(0.,0.,1.));
#616=DIRECTION('',(1.,0.,7.40148683083438E-17));
#617=DIRECTION('',(0.,0.,1.));
#618=DIRECTION('center_axis',(0.,1.,0.));
#619=DIRECTION('ref_axis',(8.88178419700126E-16,0.,-1.));
#620=DIRECTION('',(-1.,0.,0.));
#621=DIRECTION('center_axis',(0.,1.,0.));
#622=DIRECTION('ref_axis',(1.,0.,8.88178419700126E-16));
#623=DIRECTION('',(0.707106781186546,0.,-0.707106781186549));
#624=DIRECTION('',(-0.707106781186548,0.,-0.707106781186548));
#625=DIRECTION('',(-0.707106781186548,0.,0.707106781186548));
#626=DIRECTION('',(0.707106781186548,0.,-0.707106781186548));
#627=DIRECTION('',(-0.707106781186548,0.,-0.707106781186548));
#628=DIRECTION('center_axis',(0.,0.,1.));
#629=DIRECTION('ref_axis',(1.,0.,0.));
#630=DIRECTION('',(0.,1.,0.));
#631=DIRECTION('',(-1.,0.,-7.40148683083438E-17));
#632=DIRECTION('',(0.,-1.,0.));
#633=DIRECTION('center_axis',(0.707106781186548,0.,-0.707106781186548));
#634=DIRECTION('ref_axis',(0.707106781186548,0.,0.707106781186548));
#635=DIRECTION('',(0.,-1.,0.));
#636=DIRECTION('center_axis',(0.707106781186549,0.,0.707106781186546));
#637=DIRECTION('ref_axis',(-0.707106781186546,0.,0.707106781186549));
#638=DIRECTION('center_axis',(0.707106781186548,0.,-0.707106781186548));
#639=DIRECTION('ref_axis',(0.707106781186548,0.,0.707106781186548));
#640=DIRECTION('',(0.,-1.,0.));
#641=DIRECTION('',(0.707106781186548,0.,0.707106781186548));
#642=DIRECTION('',(0.,-1.,0.));
#643=DIRECTION('center_axis',(-0.707106781186548,0.,-0.707106781186548));
#644=DIRECTION('ref_axis',(0.707106781186548,0.,-0.707106781186548));
#645=DIRECTION('',(-0.707106781186546,0.,0.707106781186549));
#646=DIRECTION('center_axis',(0.707106781186548,0.,0.707106781186548));
#647=DIRECTION('ref_axis',(-0.707106781186548,0.,0.707106781186548));
#648=DIRECTION('',(-0.707106781186548,0.,0.707106781186548));
#649=DIRECTION('center_axis',(0.,-1.,0.));
#650=DIRECTION('ref_axis',(0.,0.,-1.));
#651=DIRECTION('center_axis',(0.,1.,0.));
#652=DIRECTION('ref_axis',(1.,0.,8.88178419700126E-16));
#653=DIRECTION('',(0.,1.,0.));
#654=DIRECTION('center_axis',(0.,1.,0.));
#655=DIRECTION('ref_axis',(1.,0.,8.88178419700126E-16));
#656=DIRECTION('',(0.,1.,0.));
#657=DIRECTION('center_axis',(0.,1.,0.));
#658=DIRECTION('ref_axis',(8.88178419700126E-16,0.,-1.));
#659=DIRECTION('',(0.,1.,0.));
#660=DIRECTION('center_axis',(0.,1.,0.));
#661=DIRECTION('ref_axis',(8.88178419700126E-16,0.,-1.));
#662=DIRECTION('',(0.,1.,0.));
#663=DIRECTION('center_axis',(0.,0.,-1.));
#664=DIRECTION('ref_axis',(-1.,0.,0.));
#665=DIRECTION('',(-1.,0.,0.));
#666=DIRECTION('center_axis',(0.,1.,0.));
#667=DIRECTION('ref_axis',(1.,0.,0.));
#668=DIRECTION('',(0.,0.,1.));
#669=DIRECTION('',(-1.,0.,3.70074341541719E-17));
#670=DIRECTION('',(0.,0.,-1.));
#671=DIRECTION('center_axis',(-3.70074341541719E-17,0.,-1.));
#672=DIRECTION('ref_axis',(-1.,0.,3.70074341541719E-17));
#673=DIRECTION('',(0.,1.,0.));
#674=DIRECTION('',(-1.,0.,3.70074341541719E-17));
#675=DIRECTION('',(0.,1.,0.));
#676=DIRECTION('center_axis',(-1.,0.,0.));
#677=DIRECTION('ref_axis',(0.,0.,1.));
#678=DIRECTION('',(0.,0.,1.));
#679=DIRECTION('center_axis',(1.,0.,0.));
#680=DIRECTION('ref_axis',(0.,0.,-1.));
#681=DIRECTION('',(0.,0.,1.));
#682=DIRECTION('center_axis',(0.,1.,0.));
#683=DIRECTION('ref_axis',(0.,0.,1.));
#684=CARTESIAN_POINT('',(0.,0.,0.));
#685=CARTESIAN_POINT('Origin',(1.94908591625969E-17,0.2,-0.500000007450581));
#686=CARTESIAN_POINT('',(4.91885440419202E-17,0.,-0.257500007450581));
#687=CARTESIAN_POINT('Origin',(1.94908591625969E-17,0.,-0.500000007450581));
#688=CARTESIAN_POINT('',(4.91885440419202E-17,0.4,-0.257500007450581));
#689=CARTESIAN_POINT('',(4.91885440419202E-17,0.2,-0.257500007450581));
#690=CARTESIAN_POINT('Origin',(1.94908591625969E-17,0.4,-0.500000007450581));
#691=CARTESIAN_POINT('Origin',(1.94908591625969E-17,0.4,-0.500000007450581));
#692=CARTESIAN_POINT('Origin',(0.,15.,-0.500000007450581));
#693=CARTESIAN_POINT('',(-0.5,0.,-0.500000007450581));
#694=CARTESIAN_POINT('Origin',(0.,0.,-0.500000007450581));
#695=CARTESIAN_POINT('',(-0.5,15.,-0.500000007450581));
#696=CARTESIAN_POINT('',(-0.5,15.,-0.500000007450581));
#697=CARTESIAN_POINT('Origin',(0.,15.,-0.500000007450581));
#698=CARTESIAN_POINT('Origin',(0.,0.,-0.500000007450581));
#699=CARTESIAN_POINT('Origin',(4.7187358775306E-16,15.,-3.85314025302313));
#700=CARTESIAN_POINT('',(-2.25,15.,-3.85314025302313));
#701=CARTESIAN_POINT('Origin',(4.7187358775306E-16,15.,-3.85314025302313));
#702=CARTESIAN_POINT('',(-2.25,15.5,-3.85314025302313));
#703=CARTESIAN_POINT('',(-2.25,15.,-3.85314025302313));
#704=CARTESIAN_POINT('Origin',(4.7187358775306E-16,15.5,-3.85314025302313));
#705=CARTESIAN_POINT('Origin',(-2.30627636780015,13.,-6.43759208599072));
#706=CARTESIAN_POINT('',(-1.50724570505935,13.,-5.46885579576515));
#707=CARTESIAN_POINT('Origin',(-1.42239289131696,13.,-5.55370860950754));
#708=CARTESIAN_POINT('',(-2.39112918154253,13.,-6.35273927224833));
#709=CARTESIAN_POINT('',(-2.39112918154253,13.,-6.35273927224834));
#710=CARTESIAN_POINT('Origin',(-2.30627636780015,13.,-6.43759208599072));
#711=CARTESIAN_POINT('Origin',(-1.42239289131696,13.,-5.55370860950754));
#712=CARTESIAN_POINT('Origin',(2.44051330883969,13.,-1.69080240935088));
#713=CARTESIAN_POINT('',(1.64148264609889,13.,-2.65953869957645));
#714=CARTESIAN_POINT('Origin',(1.5566298323565,13.,-2.57468588583407));
#715=CARTESIAN_POINT('',(2.52536612258207,13.,-1.77565522309327));
#716=CARTESIAN_POINT('',(2.52536612258207,13.,-1.77565522309327));
#717=CARTESIAN_POINT('Origin',(2.44051330883969,13.,-1.69080240935088));
#718=CARTESIAN_POINT('Origin',(1.5566298323565,13.,-2.57468588583407));
#719=CARTESIAN_POINT('Origin',(2.23120970160847,15.,-1.19299923539555));
#720=CARTESIAN_POINT('',(2.08695991824641,15.,-1.33724901875761));
#721=CARTESIAN_POINT('',(2.23120970160847,15.,-1.19299923539555));
#722=CARTESIAN_POINT('',(2.09665708691788,15.,-1.32755185008614));
#723=CARTESIAN_POINT('',(2.08695991824641,12.,-1.33724901875761));
#724=CARTESIAN_POINT('',(2.08695991824641,15.,-1.33724901875761));
#725=CARTESIAN_POINT('',(2.23120970160847,12.,-1.19299923539555));
#726=CARTESIAN_POINT('',(2.23120970160847,12.,-1.19299923539555));
#727=CARTESIAN_POINT('',(2.23120970160847,15.,-1.19299923539555));
#728=CARTESIAN_POINT('Origin',(-2.73336886363682,15.,-6.29899915687816));
#729=CARTESIAN_POINT('',(-2.09731737513551,15.,-6.93573987451263));
#730=CARTESIAN_POINT('',(-2.80404125124808,15.,-6.2282501882521));
#731=CARTESIAN_POINT('',(-3.75051551441892,15.,-5.28075032000408));
#732=CARTESIAN_POINT('',(-2.09731737513551,12.,-6.93573987451263));
#733=CARTESIAN_POINT('',(-2.09731737513551,15.,-6.93573987451263));
#734=CARTESIAN_POINT('',(-2.80404125124808,12.,-6.2282501882521));
#735=CARTESIAN_POINT('',(-2.09731737513551,12.,-6.93573987451263));
#736=CARTESIAN_POINT('',(-2.80404125124808,15.,-6.2282501882521));
#737=CARTESIAN_POINT('Origin',(-2.65982975839342,15.,-6.08403869539745));
#738=CARTESIAN_POINT('',(-2.65982975839342,12.,-6.08403869539745));
#739=CARTESIAN_POINT('',(-2.65982975839342,12.,-6.08403869539745));
#740=CARTESIAN_POINT('',(-2.65982975839342,15.,-6.08403869539745));
#741=CARTESIAN_POINT('',(-2.65982975839342,15.,-6.08403869539745));
#742=CARTESIAN_POINT('',(-0.34886264308306,15.,-3.77307158008708));
#743=CARTESIAN_POINT('Origin',(-2.34304592042185,12.,-6.54524462401436));
#744=CARTESIAN_POINT('',(-1.95272297720688,12.,-6.79114547658399));
#745=CARTESIAN_POINT('',(-2.09731737513551,12.,-6.93573987451263));
#746=CARTESIAN_POINT('',(-1.95272297720688,12.,-6.79114547658399));
#747=CARTESIAN_POINT('Origin',(0.,15.,0.500000007450581));
#748=CARTESIAN_POINT('',(3.,15.,-6.));
#749=CARTESIAN_POINT('',(3.,15.,1.50000001490116));
#750=CARTESIAN_POINT('',(3.,15.,1.00000001490116));
#751=CARTESIAN_POINT('',(-3.,15.,1.50000001490116));
#752=CARTESIAN_POINT('',(0.,15.,1.50000001490116));
#753=CARTESIAN_POINT('',(-3.,15.,-6.));
#754=CARTESIAN_POINT('',(-3.,15.,-6.));
#755=CARTESIAN_POINT('',(-2.,15.,-7.));
#756=CARTESIAN_POINT('Origin',(-2.,15.,-6.));
#757=CARTESIAN_POINT('',(2.,15.,-7.));
#758=CARTESIAN_POINT('',(0.,15.,-7.));
#759=CARTESIAN_POINT('Origin',(2.,15.,-6.));
#760=CARTESIAN_POINT('',(2.93831648279502,15.,-1.9001060165821));
#761=CARTESIAN_POINT('',(1.28551280455415,15.,-0.247302338341228));
#762=CARTESIAN_POINT('',(2.79406669943296,15.,-2.04435579994416));
#763=CARTESIAN_POINT('',(2.73163897642341,15.,-2.10678352295371));
#764=CARTESIAN_POINT('',(1.14126302119209,15.,-0.391552121703285));
#765=CARTESIAN_POINT('',(-1.95272297720688,15.,-6.79114547658399));
#766=CARTESIAN_POINT('',(-3.60552665544775,15.,-5.13834179834312));
#767=CARTESIAN_POINT('',(0.285946939139172,15.,-4.55247556023795));
#768=CARTESIAN_POINT('Origin',(-3.,15.,1.50000001490116));
#769=CARTESIAN_POINT('',(3.,20.,1.50000001490116));
#770=CARTESIAN_POINT('',(3.,15.,1.50000001490116));
#771=CARTESIAN_POINT('',(-3.,20.,1.50000001490116));
#772=CARTESIAN_POINT('',(0.,20.,1.50000001490116));
#773=CARTESIAN_POINT('',(-3.,15.,1.50000001490116));
#774=CARTESIAN_POINT('Origin',(-2.09731737513551,15.,-6.93573987451263));
#775=CARTESIAN_POINT('',(-1.95272297720688,15.,-6.79114547658399));
#776=CARTESIAN_POINT('Origin',(-1.95272297720688,15.,-6.79114547658399));
#777=CARTESIAN_POINT('Origin',(2.79406669943296,15.,-2.04435579994416));
#778=CARTESIAN_POINT('',(2.93831648279502,12.,-1.9001060165821));
#779=CARTESIAN_POINT('',(2.93831648279502,15.,-1.9001060165821));
#780=CARTESIAN_POINT('',(2.79406669943296,12.,-2.04435579994416));
#781=CARTESIAN_POINT('',(2.93831648279502,12.,-1.9001060165821));
#782=CARTESIAN_POINT('',(2.79406669943296,15.,-2.04435579994416));
#783=CARTESIAN_POINT('Origin',(2.15767059636507,15.,-1.40795969687626));
#784=CARTESIAN_POINT('',(2.15767059636507,12.,-1.40795969687626));
#785=CARTESIAN_POINT('Origin',(2.93831648279502,15.,-1.9001060165821));
#786=CARTESIAN_POINT('',(2.93831648279502,12.,-1.9001060165821));
#787=CARTESIAN_POINT('Origin',(2.54799353958004,12.,-1.65403285672918));
#788=CARTESIAN_POINT('Origin',(2.,15.,-6.));
#789=CARTESIAN_POINT('',(2.,15.5,-7.));
#790=CARTESIAN_POINT('',(2.,15.,-7.));
#791=CARTESIAN_POINT('',(3.,15.5,-6.));
#792=CARTESIAN_POINT('Origin',(2.,15.5,-6.));
#793=CARTESIAN_POINT('',(3.,15.,-6.));
#794=CARTESIAN_POINT('Origin',(-2.,15.,-6.));
#795=CARTESIAN_POINT('',(-3.,15.5,-6.));
#796=CARTESIAN_POINT('',(-3.,15.,-6.));
#797=CARTESIAN_POINT('',(-2.,15.5,-7.));
#798=CARTESIAN_POINT('Origin',(-2.,15.5,-6.));
#799=CARTESIAN_POINT('',(-2.,15.,-7.));
#800=CARTESIAN_POINT('Origin',(2.,15.,-7.));
#801=CARTESIAN_POINT('',(0.,15.5,-7.));
#802=CARTESIAN_POINT('Origin',(0.,15.5,-3.5));
#803=CARTESIAN_POINT('',(-3.,15.5,0.));
#804=CARTESIAN_POINT('',(-3.,15.5,-6.));
#805=CARTESIAN_POINT('',(3.,15.5,0.));
#806=CARTESIAN_POINT('',(1.5,15.5,0.));
#807=CARTESIAN_POINT('',(3.,15.5,-1.00000001490116));
#808=CARTESIAN_POINT('Origin',(3.,15.,0.));
#809=CARTESIAN_POINT('',(-3.,20.,2.22044604925031E-16));
#810=CARTESIAN_POINT('',(-3.,15.,2.22044604925031E-16));
#811=CARTESIAN_POINT('',(3.,20.,0.));
#812=CARTESIAN_POINT('',(-3.,20.,2.22044604925031E-16));
#813=CARTESIAN_POINT('',(3.,15.,0.));
#814=CARTESIAN_POINT('Origin',(-3.,15.,2.22044604925031E-16));
#815=CARTESIAN_POINT('',(-3.,20.,1.00000001490116));
#816=CARTESIAN_POINT('Origin',(3.,15.,1.00000001490116));
#817=CARTESIAN_POINT('',(3.,20.,1.00000001490116));
#818=CARTESIAN_POINT('Origin',(0.,20.,0.500000007450581));
#819=UNCERTAINTY_MEASURE_WITH_UNIT(LENGTH_MEASURE(0.001),#823,
'DISTANCE_ACCURACY_VALUE',
'Maximum model space distance between geometric entities at asserted c
onnectivities');
#820=UNCERTAINTY_MEASURE_WITH_UNIT(LENGTH_MEASURE(0.001),#823,
'DISTANCE_ACCURACY_VALUE',
'Maximum model space distance between geometric entities at asserted c
onnectivities');
#821=(
GEOMETRIC_REPRESENTATION_CONTEXT(3)
GLOBAL_UNCERTAINTY_ASSIGNED_CONTEXT((#819))
GLOBAL_UNIT_ASSIGNED_CONTEXT((#823,#825,#826))
REPRESENTATION_CONTEXT('','3D')
);
#822=(
GEOMETRIC_REPRESENTATION_CONTEXT(3)
GLOBAL_UNCERTAINTY_ASSIGNED_CONTEXT((#820))
GLOBAL_UNIT_ASSIGNED_CONTEXT((#823,#825,#826))
REPRESENTATION_CONTEXT('','3D')
);
#823=(
LENGTH_UNIT()
NAMED_UNIT(*)
SI_UNIT(.CENTI.,.METRE.)
);
#824=(
LENGTH_UNIT()
NAMED_UNIT(*)
SI_UNIT($,.METRE.)
);
#825=(
NAMED_UNIT(*)
PLANE_ANGLE_UNIT()
SI_UNIT($,.RADIAN.)
);
#826=(
NAMED_UNIT(*)
SI_UNIT($,.STERADIAN.)
SOLID_ANGLE_UNIT()
);
#827=SHAPE_DEFINITION_REPRESENTATION(#828,#829);
#828=PRODUCT_DEFINITION_SHAPE('',$,#831);
#829=SHAPE_REPRESENTATION('',(#503),#821);
#830=PRODUCT_DEFINITION_CONTEXT('part definition',#835,'design');
#831=PRODUCT_DEFINITION('2026-06-27-16-40-12-699','Hoop',#832,#830);
#832=PRODUCT_DEFINITION_FORMATION('',$,#837);
#833=PRODUCT_RELATED_PRODUCT_CATEGORY('Hoop','Hoop',(#837));
#834=APPLICATION_PROTOCOL_DEFINITION('international standard',
'automotive_design',2009,#835);
#835=APPLICATION_CONTEXT(
'Core Data for Automotive Mechanical Design Process');
#836=PRODUCT_CONTEXT('part definition',#835,'mechanical');
#837=PRODUCT('2026-06-27-16-40-12-699','Hoop',$,(#836));
#838=PRESENTATION_STYLE_ASSIGNMENT((#839));
#839=SURFACE_STYLE_USAGE(.BOTH.,#840);
#840=SURFACE_SIDE_STYLE('',(#841));
#841=SURFACE_STYLE_FILL_AREA(#842);
#842=FILL_AREA_STYLE('Steel - Satin',(#843));
#843=FILL_AREA_STYLE_COLOUR('Steel - Satin',#844);
#844=COLOUR_RGB('Steel - Satin',0.627450980392157,0.627450980392157,0.627450980392157);
ENDSEC;
END-ISO-10303-21;
